<?xml version="1.0" encoding="utf-8"?>
<!-- Generator: Adobe Illustrator 16.0.0, SVG Export Plug-In . SVG Version: 6.00 Build 0)  -->
<!DOCTYPE svg PUBLIC "-//W3C//DTD SVG 1.1//EN" "http://www.w3.org/Graphics/SVG/1.1/DTD/svg11.dtd">
<svg version="1.1" xmlns="http://www.w3.org/2000/svg" xmlns:xlink="http://www.w3.org/1999/xlink" x="0px" y="0px"
	 width="234.812px" height="316.377px" viewBox="0 0 234.812 316.377" enable-background="new 0 0 234.812 316.377"
	 xml:space="preserve">
<g id="Layer_1" display="none">
	<g display="inline">
		<g>
			<path fill="#FBFBFB" d="M-43.583,33.256c0.249,2.559,0.024,5.093,0.024,7.627c0,2.476,0.074,4.951,0.224,7.434
				c0.1,1.82,0.224,3.631,0.383,5.467l-6.074,0.449c-1.364-15.42,0.412-19.421-1.653-25.082
				C-48.119,30.316-45.77,31.711-43.583,33.256z"/>
			<path fill="#FBFBFB" d="M-91.659,14.665c5.441-2.293,11.772-3.24,18.093-3.007c11.213,0.462,23.083,4.789,27.98,14.754
				c-3.016-1.586-6.28-2.908-9.811-3.846c-4.921-4.225-11.798-5.99-18.202-6.239c-4.942-0.199-9.903,0.531-14.157,2.177
				c-15.668,6.057-20.174,23.183-20.892,40.134l-6.081,0.448C-113.764,31.072-103.334,19.579-91.659,14.665z"/>
			<path fill="#37519F" d="M-196.847,65.166c0.037,0.006,30.259,5.3,30.297,5.3l-1.072,203.162l0,0l-39.227,24.831L-196.847,65.166
				L-196.847,65.166z"/>
			<path fill="#37519F" d="M-147.347,77.54l7.927,239.835l194.641-35.837L45.818,61.95C45.818,61.95-147.309,77.537-147.347,77.54z"
				/>
			<polygon fill="#284093" points="-167.605,273.628 -139.417,317.377 -139.426,317.377 -206.849,298.459 -167.622,273.628 			"/>
			<polygon fill="#263688" points="-147.342,77.544 -139.417,317.377 -167.605,273.628 -167.622,273.628 -166.55,70.466 			"/>
			<path fill="#263688" d="M-147.342,77.544l-19.208-7.078c-0.038,0-30.26-5.294-30.297-5.3L0.77,50.537l0.008,0.009l12.611,5.665
				l32.417,5.741L-147.342,77.544z"/>
			<path fill="#263688" d="M-23.257,67.152l-6.916,0.565c1.655,1.896,3.605,4.681,5.347,7.927c1.704,3.172,4.318,5.002,8.083,9.64
				c-0.208,0.41-0.829,0.72-1.02,1.185c-0.786,1.733,1.14,3.411,3.48,2.734c2.129-0.572,3.494-2.23,3.436-5.095v-0.026
				c-0.018-0.055-0.009-0.109-0.009-0.173c-6.755-8.684-6.85-7.882-11.462-15.472c0,0,0,0-0.028,0
				C-22.646,68.009-22.947,67.572-23.257,67.152z"/>
			<path fill="#263688" d="M-89.534,93.637c-1.264-2.695-2.666-5.335-4.191-7.95c-2.5-4.19-4.88-7.905-7.791-11.846l6.706-0.538
				c1.258,1.795,2.489,3.59,3.653,5.449c1.659,2.561,3.199,5.166,4.639,7.818c1.075,1.94,2.077,3.917,2.97,5.904
				c0.051,0.111,0.098,0.224,0.148,0.335C-85.491,92.909-87.54,93.193-89.534,93.637z"/>
			<path fill="#FBFBFB" d="M-29.452,39.454C-22.557,47.415-16.41,57-12.489,67.135l0,0c0.199,0.582,0.391,1.171,0.574,1.745
				c0.024,0.017,0.024,0.017,0.024,0.017c0.315,1.859,3.396,10.299,1.994,16.822c-0.062,0.146-0.049,0.192-0.049,0.192
				c-0.125,0.423-0.257,0.848-0.457,1.238c0.017,0,0.017-0.009,0.017-0.025c-1.206,2.711-4.549,3.184-6.198,2.093
				c-1.229-0.78-1.52-2.151-0.672-3.107c0.324-0.391,1.005-0.498,1.329-0.831c1.2-2.85-0.478-12.279-2.658-17.953
				c-0.135-0.928-3.744-9.227-9.562-17.496c-6.075-8.712-12.864-16.285-22.53-20.678c-1.503-0.681-3.09-1.279-4.743-1.778
				c-11.137-3.462-31.525-2.884-34.717,8.208c-1.405,4.852,1.553,9.819,3.09,14.555c0.73,2.243,1.413,4.486,2.019,6.763
				c0.822,2.941,1.521,5.882,2.102,8.839c0.449,2.176,0.823,4.361,1.08,6.521c0.324,2.609,0.532,5.226,0.573,7.851l0,0
				c0,0.307,0.024,0.614,0.024,0.922c0.01,1.545,0.076,3.116,0.101,4.669c0,1.554-0.049,3.099-0.324,4.645
				c-0.125,0.547-0.257,1.112-0.449,1.661c0,0.017,0,0.034-0.024,0.05l0,0c-0.282,0.838-0.723,1.645-1.313,2.327v0.017
				c-0.855,0.988-2.059,1.728-3.763,1.943c-0.223,0.042-0.424,0.049-0.639,0.042c-1.612-0.075-3.042-1.164-3-2.484
				c0.033-0.731,0.498-1.396,1.295-1.794c0.715-0.332,1.114-0.216,1.446-0.881c0.763-1.462,0.763-3.207,0.806-4.785
				c0.025-1.877-0.083-3.771-0.083-5.632c-0.025-2.708-0.216-5.383-0.548-8.075c-0.646-5.2-1.782-10.313-3.181-15.403
				c-0.839-3.074-1.788-6.131-2.867-9.155c-0.823-2.384-1.937-4.71-2.41-7.119c-0.522-2.792-0.339-5.625,0.798-8.233
				C-89.327,18.954-52.992,12.31-29.452,39.454z"/>
		</g>
	</g>
</g>
<g id="Layer_2" display="none">
	<g display="inline">
		<g>
			<path fill="#FBFBFB" d="M132.909,24.244c0.256,2.631,0.025,5.236,0.025,7.842c0,2.545,0.076,5.091,0.23,7.644
				c0.103,1.871,0.23,3.733,0.394,5.621l-6.245,0.461c-1.402-15.855,0.424-19.968-1.699-25.789
				C128.245,21.22,130.661,22.655,132.909,24.244z"/>
			<path fill="#FBFBFB" d="M83.478,5.127c5.595-2.358,12.104-3.332,18.604-3.092c11.529,0.476,23.733,4.924,28.77,15.17
				c-3.102-1.631-6.457-2.989-10.088-3.955c-5.06-4.344-12.131-6.159-18.715-6.415c-5.082-0.205-10.183,0.546-14.557,2.238
				C71.381,15.302,66.748,32.91,66.01,50.34l-6.252,0.46C60.749,21.998,71.473,10.18,83.478,5.127z"/>
			<path fill="#E83C6A" d="M-24.677,57.053c0.038,0.006,31.112,5.45,31.151,5.45L5.372,271.395l0,0l-40.333,25.531L-24.677,57.053
				L-24.677,57.053z"/>
			<path fill="#E83C6A" d="M26.219,69.776l8.15,246.599L234.5,279.527l-9.668-225.781C224.832,53.746,26.258,69.773,26.219,69.776z"
				/>
			<polygon fill="#C11636" points="5.39,271.395 34.372,316.377 34.363,316.377 -34.961,296.926 5.372,271.395 			"/>
			<polygon fill="#6B1224" points="26.224,69.781 34.372,316.377 5.39,271.395 5.372,271.395 6.475,62.503 			"/>
			<path fill="#6B1224" d="M26.224,69.781L6.475,62.503c-0.039,0-31.113-5.443-31.151-5.45l203.189-15.042l0.008,0.009l12.967,5.825
				l33.331,5.902L26.224,69.781z"/>
			<path fill="#6B1224" d="M153.809,59.096l-7.11,0.581c1.701,1.95,3.707,4.813,5.498,8.151c1.752,3.261,4.439,5.144,8.311,9.912
				c-0.215,0.422-0.853,0.74-1.049,1.218c-0.809,1.782,1.172,3.507,3.578,2.811c2.189-0.588,3.592-2.293,3.532-5.238v-0.027
				c-0.019-0.056-0.009-0.112-0.009-0.178c-6.946-8.929-7.043-8.104-11.786-15.908c0,0,0,0-0.028,0
				C154.437,59.977,154.127,59.527,153.809,59.096z"/>
			<path fill="#6B1224" d="M85.662,86.327c-1.3-2.771-2.741-5.485-4.31-8.174c-2.57-4.309-5.018-8.128-8.011-12.18l6.896-0.553
				c1.293,1.846,2.559,3.691,3.756,5.603c1.706,2.632,3.289,5.312,4.77,8.039c1.105,1.995,2.136,4.027,3.054,6.07
				c0.053,0.115,0.101,0.23,0.152,0.345C89.819,85.579,87.713,85.871,85.662,86.327z"/>
			<path fill="#FBFBFB" d="M147.438,30.616c7.09,8.186,13.41,18.041,17.441,28.462l0,0c0.205,0.598,0.402,1.204,0.59,1.793
				c0.025,0.017,0.025,0.017,0.025,0.017c0.324,1.912,3.492,10.59,2.05,17.297c-0.063,0.15-0.051,0.197-0.051,0.197
				c-0.128,0.435-0.265,0.872-0.47,1.272c0.018,0,0.018-0.009,0.018-0.025c-1.24,2.788-4.678,3.273-6.373,2.152
				c-1.264-0.802-1.563-2.212-0.691-3.194c0.333-0.402,1.033-0.512,1.366-0.854c1.233-2.93-0.491-12.626-2.733-18.459
				c-0.139-0.955-3.85-9.487-9.831-17.989c-6.246-8.958-13.227-16.744-23.165-21.261c-1.546-0.7-3.178-1.315-4.877-1.828
				c-11.451-3.56-32.414-2.965-35.696,8.44c-1.444,4.988,1.597,10.096,3.178,14.965c0.751,2.306,1.452,4.613,2.075,6.953
				c0.846,3.024,1.563,6.048,2.161,9.089c0.462,2.238,0.846,4.484,1.11,6.705c0.333,2.683,0.547,5.373,0.589,8.072l0,0
				c0,0.316,0.025,0.631,0.025,0.948c0.01,1.589,0.078,3.204,0.104,4.801c0,1.598-0.051,3.187-0.333,4.775
				c-0.129,0.563-0.265,1.144-0.462,1.708c0,0.018,0,0.035-0.025,0.052l0,0c-0.29,0.862-0.743,1.691-1.35,2.392v0.017
				c-0.88,1.016-2.117,1.776-3.869,1.999c-0.229,0.043-0.436,0.051-0.657,0.043c-1.657-0.077-3.127-1.197-3.084-2.554
				c0.034-0.752,0.512-1.435,1.332-1.845c0.735-0.341,1.146-0.222,1.486-0.906c0.785-1.503,0.785-3.297,0.829-4.92
				c0.026-1.931-0.086-3.878-0.086-5.792c-0.025-2.785-0.222-5.535-0.563-8.302c-0.664-5.346-1.832-10.604-3.271-15.837
				c-0.863-3.16-1.838-6.304-2.948-9.413c-0.846-2.452-1.991-4.843-2.478-7.32c-0.537-2.87-0.349-5.783,0.82-8.465
				C85.875,9.538,123.235,2.706,147.438,30.616z"/>
		</g>
	</g>
</g>
<g id="ISM_LOGO" display="none">
	<g display="inline">
		<g>
			<g>
				<g>
					<path fill-rule="evenodd" clip-rule="evenodd" fill="#FFFFFF" d="M156.114,261.96c-1.175,0-2.093,0.46-2.756,1.381
						c-0.662,0.92-1,2.222-1.015,3.904v0.902c0,1.719,0.335,3.047,1.005,3.985c0.669,0.938,1.599,1.407,2.787,1.407
						c1.203,0,2.129-0.458,2.777-1.375c0.647-0.917,0.972-2.256,0.972-4.018v-0.816c0-1.733-0.327-3.062-0.983-3.985
						C158.247,262.422,157.317,261.96,156.114,261.96z"/>
					<path fill-rule="evenodd" clip-rule="evenodd" fill="#FFFFFF" d="M128.786,261.96c-1.175,0-2.093,0.46-2.756,1.381
						c-0.662,0.92-1,2.222-1.015,3.904v0.902c0,1.719,0.335,3.047,1.005,3.985c0.669,0.938,1.599,1.407,2.787,1.407
						c1.203,0,2.129-0.458,2.777-1.375c0.647-0.917,0.972-2.256,0.972-4.018v-0.816c0-1.733-0.327-3.062-0.983-3.985
						C130.919,262.422,129.989,261.96,128.786,261.96z"/>
					<path fill-rule="evenodd" clip-rule="evenodd" fill="#FFFFFF" d="M76.772,261.96c-1.175,0-2.093,0.46-2.756,1.381
						c-0.662,0.92-1,2.222-1.015,3.904v0.902c0,1.719,0.335,3.047,1.005,3.985c0.669,0.938,1.599,1.407,2.787,1.407
						c1.203,0,2.129-0.458,2.777-1.375c0.647-0.917,0.972-2.256,0.972-4.018v-0.816c0-1.733-0.327-3.062-0.983-3.985
						C78.905,262.422,77.976,261.96,76.772,261.96z"/>
					<path fill-rule="evenodd" clip-rule="evenodd" fill="#FFFFFF" d="M173.028,262.819c-0.477-0.458-1.188-0.694-2.133-0.709
						h-2.868v5.242h2.793c0.917,0,1.633-0.23,2.148-0.693c0.516-0.461,0.773-1.094,0.773-1.896
						C173.742,263.926,173.504,263.277,173.028,262.819z"/>
					<path fill-rule="evenodd" clip-rule="evenodd" fill="#FFFFFF" d="M-66.855,262.819c-0.477-0.458-1.187-0.694-2.132-0.709
						h-2.868v5.242h2.793c0.917,0,1.633-0.23,2.148-0.693c0.516-0.461,0.773-1.094,0.773-1.896
						C-66.141,263.926-66.379,263.277-66.855,262.819z"/>
					<path fill-rule="evenodd" clip-rule="evenodd" fill="#FFFFFF" d="M29.013,261.96c-1.175,0-2.093,0.46-2.756,1.381
						c-0.662,0.92-1,2.222-1.015,3.904v0.902c0,1.719,0.335,3.047,1.005,3.985c0.669,0.938,1.599,1.407,2.787,1.407
						c1.203,0,2.129-0.458,2.777-1.375c0.647-0.917,0.972-2.256,0.972-4.018v-0.816c0-1.733-0.327-3.062-0.983-3.985
						C31.146,262.422,30.216,261.96,29.013,261.96z"/>
					<path fill-rule="evenodd" clip-rule="evenodd" fill="#FFFFFF" d="M44.202,261.96c-1.175,0-2.093,0.46-2.756,1.381
						c-0.662,0.92-1,2.222-1.015,3.904v0.902c0,1.719,0.335,3.047,1.005,3.985c0.669,0.938,1.599,1.407,2.787,1.407
						c1.203,0,2.129-0.458,2.777-1.375c0.647-0.917,0.972-2.256,0.972-4.018v-0.816c0-1.733-0.327-3.062-0.983-3.985
						C46.335,262.422,45.405,261.96,44.202,261.96z"/>
					<path fill-rule="evenodd" clip-rule="evenodd" fill="#FFFFFF" d="M233.768,265.359c-0.466-4.037-2.783-7.225-4.789-10.539
						c-11.335-18.723-22.705-37.418-34.047-56.133c-22.728-37.513-45.446-75.029-68.166-112.546
						c-13.957-23.048-27.924-46.091-41.84-69.165C81.684,11.6,77.725,7.152,71.698,4.775c-5.399-2.128-9.526-1.173-12.511-0.348
						c-6.031,1.663-10.283,5.631-13.449,10.798C37.786,28.208,29.97,41.275,22.044,54.275
						c-9.204,15.099-38.578,63.686-42.495,70.161c-23.045,38.102-46.097,76.2-69.176,114.28
						c-5.393,8.898-10.942,17.705-15.741,26.951c-2.031,5.445-0.055,10.559,0.49,11.988c3.085,8.1,9.025,10.432,16.727,12.756
						c0.458,0.141,5.635,0.168,6.673,0.168c97.416-0.031,194.832-0.033,292.248-0.014c0.925,0,7.344-0.611,8.778-0.74
						c0.185-0.125,2.325-0.695,3.382-1.266c6.522-2.918,8.445-5.986,10.734-12.336C234.279,272.885,233.829,265.896,233.768,265.359
						z M-77.915,275.56h-2.707v-15.641h2.707V275.56z M-62.779,275.56h-2.911l-3.137-6.016h-3.029v6.016h-2.718v-15.641h5.5
						c1.805,0,3.197,0.405,4.179,1.215c0.981,0.811,1.472,1.982,1.472,3.516c0,1.047-0.252,1.923-0.757,2.629
						s-1.208,1.249-2.111,1.629l3.513,6.513V275.56z M-57.977,275.56h-2.707v-15.641h2.707V275.56z M-45.242,274.62
						c-0.999,0.77-2.354,1.154-4.066,1.154c-1.132,0-2.172-0.209-3.121-0.629c-0.949-0.418-1.687-0.997-2.213-1.734
						s-0.79-1.597-0.79-2.578h2.718c0,0.888,0.293,1.575,0.881,2.063c0.587,0.487,1.429,0.73,2.524,0.73
						c0.945,0,1.656-0.191,2.132-0.574c0.476-0.384,0.714-0.891,0.714-1.521c0-0.688-0.242-1.218-0.725-1.59
						s-1.355-0.748-2.616-1.128c-1.261-0.38-2.263-0.802-3.008-1.268c-1.425-0.896-2.138-2.063-2.138-3.502
						c0-1.261,0.514-2.299,1.542-3.115c1.027-0.816,2.361-1.225,4.001-1.225c1.088,0,2.059,0.2,2.911,0.602
						c0.852,0.401,1.521,0.973,2.009,1.713c0.487,0.742,0.73,1.563,0.73,2.466h-2.707c0-0.81-0.256-1.443-0.768-1.901
						c-0.512-0.458-1.245-0.688-2.197-0.688c-0.888,0-1.578,0.189-2.068,0.567c-0.491,0.378-0.736,0.905-0.736,1.583
						c0,0.57,0.265,1.047,0.795,1.428c0.53,0.382,1.403,0.753,2.621,1.113c1.217,0.36,2.195,0.771,2.933,1.232
						c0.737,0.463,1.278,0.992,1.622,1.59c0.344,0.599,0.516,1.299,0.516,2.101C-43.744,272.813-44.243,273.85-45.242,274.62z
						 M-28.941,275.56h-2.707v-6.939h-6.993v6.939h-2.718v-15.641h2.718v6.51h6.993v-6.51h2.707V275.56z M-10.856,274.62
						c-0.999,0.77-2.354,1.154-4.066,1.154c-1.132,0-2.172-0.209-3.121-0.629c-0.949-0.418-1.687-0.997-2.213-1.734
						s-0.79-1.597-0.79-2.578h2.718c0,0.888,0.293,1.575,0.881,2.063c0.587,0.487,1.429,0.73,2.524,0.73
						c0.945,0,1.656-0.191,2.132-0.574c0.476-0.384,0.714-0.891,0.714-1.521c0-0.688-0.242-1.218-0.725-1.59
						s-1.355-0.748-2.616-1.128c-1.261-0.38-2.263-0.802-3.008-1.268c-1.425-0.896-2.138-2.063-2.138-3.502
						c0-1.261,0.514-2.299,1.542-3.115c1.027-0.816,2.361-1.225,4.001-1.225c1.088,0,2.059,0.2,2.911,0.602
						c0.852,0.401,1.521,0.973,2.009,1.713c0.487,0.742,0.73,1.563,0.73,2.466h-2.707c0-0.81-0.256-1.443-0.768-1.901
						c-0.512-0.458-1.245-0.688-2.197-0.688c-0.888,0-1.578,0.189-2.068,0.567c-0.491,0.378-0.736,0.905-0.736,1.583
						c0,0.57,0.265,1.047,0.795,1.428c0.53,0.382,1.403,0.753,2.621,1.113c1.217,0.36,2.195,0.771,2.933,1.232
						c0.737,0.463,1.278,0.992,1.622,1.59c0.344,0.599,0.516,1.299,0.516,2.101C-9.358,272.813-9.857,273.85-10.856,274.62z
						 M-3.831,272.25c0.605,0.889,1.491,1.333,2.659,1.333c1.067,0,1.869-0.24,2.406-0.72s0.877-1.278,1.021-2.396h2.707
						c-0.158,1.669-0.773,2.971-1.848,3.904c-1.074,0.936-2.504,1.402-4.287,1.402c-1.246,0-2.344-0.295-3.292-0.887
						c-0.949-0.59-1.681-1.43-2.197-2.519s-0.784-2.353-0.806-3.792v-1.461c0-1.476,0.261-2.775,0.784-3.899
						c0.522-1.124,1.273-1.991,2.25-2.6s2.107-0.913,3.389-0.913c1.726,0,3.115,0.467,4.167,1.402
						c1.053,0.934,1.666,2.257,1.838,3.969H2.255c-0.129-1.124-0.457-1.936-0.984-2.434c-0.525-0.497-1.297-0.746-2.314-0.746
						c-1.182,0-2.089,0.432-2.723,1.296c-0.634,0.863-0.958,2.131-0.972,3.801v1.387C-4.739,270.07-4.437,271.361-3.831,272.25z
						 M19.808,275.56h-2.707v-6.939h-6.993v6.939H7.39v-15.641h2.718v6.51h6.993v-6.51h2.707V275.56z M35.501,268.147
						c0,1.532-0.265,2.877-0.795,4.033c-0.53,1.157-1.287,2.045-2.271,2.664c-0.985,0.62-2.118,0.93-3.4,0.93
						c-1.268,0-2.397-0.31-3.389-0.93c-0.992-0.619-1.759-1.502-2.299-2.647c-0.541-1.146-0.815-2.467-0.822-3.964v-0.881
						c0-1.525,0.271-2.872,0.811-4.039c0.541-1.167,1.304-2.061,2.289-2.68c0.984-0.62,2.114-0.93,3.389-0.93
						s2.404,0.307,3.389,0.918c0.985,0.613,1.746,1.494,2.283,2.643c0.537,1.15,0.81,2.487,0.816,4.013V268.147z M50.69,268.147
						c0,1.532-0.265,2.877-0.795,4.033c-0.53,1.157-1.287,2.045-2.271,2.664c-0.985,0.62-2.118,0.93-3.4,0.93
						c-1.268,0-2.397-0.31-3.389-0.93c-0.992-0.619-1.759-1.502-2.299-2.647c-0.541-1.146-0.815-2.467-0.822-3.964v-0.881
						c0-1.525,0.271-2.872,0.811-4.039c0.541-1.167,1.304-2.061,2.289-2.68c0.984-0.62,2.114-0.93,3.389-0.93
						s2.404,0.307,3.389,0.918c0.985,0.613,1.746,1.494,2.283,2.643c0.537,1.15,0.81,2.487,0.816,4.013V268.147z M63.216,275.56
						h-9.818v-15.641h2.718v13.449h7.101V275.56z M83.261,268.147c0,1.532-0.265,2.877-0.795,4.033
						c-0.53,1.157-1.287,2.045-2.271,2.664c-0.985,0.62-2.118,0.93-3.4,0.93c-1.268,0-2.397-0.31-3.389-0.93
						c-0.992-0.619-1.759-1.502-2.299-2.647c-0.541-1.146-0.815-2.467-0.822-3.964v-0.881c0-1.525,0.271-2.872,0.811-4.039
						c0.541-1.167,1.304-2.061,2.289-2.68c0.984-0.62,2.114-0.93,3.389-0.93s2.404,0.307,3.389,0.918
						c0.985,0.613,1.746,1.494,2.283,2.643c0.537,1.15,0.81,2.487,0.816,4.013V268.147z M95.904,262.11h-7.219v4.651h6.295v2.191
						h-6.295v6.606h-2.718v-15.641h9.937V262.11z M119.581,275.56h-2.707v-5.156l0.269-6.896l-4.619,12.053h-1.944l-4.608-12.042
						l0.269,6.886v5.156h-2.707v-15.641h3.523l4.512,11.988l4.501-11.988h3.513V275.56z M135.274,268.147
						c0,1.532-0.265,2.877-0.795,4.033c-0.53,1.157-1.287,2.045-2.271,2.664c-0.985,0.62-2.118,0.93-3.4,0.93
						c-1.268,0-2.397-0.31-3.389-0.93c-0.992-0.619-1.759-1.502-2.299-2.647c-0.541-1.146-0.815-2.467-0.822-3.964v-0.881
						c0-1.525,0.271-2.872,0.811-4.039c0.541-1.167,1.304-2.061,2.289-2.68c0.984-0.62,2.114-0.93,3.389-0.93
						s2.404,0.307,3.389,0.918c0.985,0.613,1.746,1.494,2.283,2.643c0.537,1.15,0.81,2.487,0.816,4.013V268.147z M148.37,262.11
						h-4.877v13.449h-2.696V262.11h-4.834v-2.191h12.407V262.11z M162.603,268.147c0,1.532-0.265,2.877-0.795,4.033
						c-0.53,1.157-1.287,2.045-2.271,2.664c-0.985,0.62-2.118,0.93-3.4,0.93c-1.268,0-2.397-0.31-3.389-0.93
						c-0.992-0.619-1.759-1.502-2.299-2.647c-0.541-1.146-0.815-2.467-0.822-3.964v-0.881c0-1.525,0.271-2.872,0.811-4.039
						c0.541-1.167,1.304-2.061,2.289-2.68c0.984-0.62,2.114-0.93,3.389-0.93s2.404,0.307,3.389,0.918
						c0.985,0.613,1.746,1.494,2.283,2.643c0.537,1.15,0.81,2.487,0.816,4.013V268.147z M177.104,275.56h-2.911l-3.137-6.016h-3.029
						v6.016h-2.718v-15.641h5.5c1.805,0,3.197,0.405,4.179,1.215c0.981,0.811,1.472,1.982,1.472,3.516
						c0,1.047-0.252,1.923-0.758,2.629c-0.504,0.706-1.208,1.249-2.11,1.629l3.513,6.513V275.56z M181.906,275.56h-2.707v-15.641
						h2.707V275.56z M197.654,275.56h-2.718l-6.972-11.097v11.097h-2.718v-15.641h2.718l6.993,11.14v-11.14h2.696V275.56z
						 M192.592,251.461c-42.641,0.029-85.282,0.023-127.924,0.023c0-0.006,0-0.016,0-0.023c-42.641,0-85.281,0-127.922,0
						c-0.558,0-1.117,0.012-1.675-0.008c-10.079-0.344-14.326-7.922-9.161-16.598c7.065-11.867,14.278-23.648,21.433-35.465
						c29.464-48.648,58.883-97.323,88.43-145.92c6.65-10.939,12.929-22.109,20.113-32.723c4.481-6.622,13.121-7.031,17.488-0.406
						c7.21,10.942,13.885,22.22,20.409,33.594c5.735,9.999,12.089,19.641,18.11,29.476c7.163,11.699,14.276,23.428,21.386,35.16
						c22.949,37.87,45.89,75.745,68.821,113.626c1.666,2.752,3.493,5.422,3.645,8.85c0.223,5.061-2.556,8.904-7.516,9.885
						C196.387,251.295,194.473,251.459,192.592,251.461z M212.854,273.529c-0.565,0.737-1.35,1.296-2.353,1.676
						s-2.142,0.569-3.416,0.569c-1.311,0-2.471-0.297-3.48-0.892s-1.788-1.444-2.337-2.552c-0.547-1.105-0.832-2.396-0.854-3.872
						v-1.225c0-2.363,0.565-4.209,1.697-5.538c1.132-1.328,2.711-1.992,4.737-1.992c1.74,0,3.122,0.432,4.146,1.295
						c1.024,0.862,1.64,2.104,1.848,3.722h-2.664c-0.301-1.884-1.393-2.825-3.276-2.825c-1.218,0-2.143,0.438-2.777,1.313
						c-0.633,0.875-0.961,2.158-0.982,3.851v1.2c0,1.686,0.356,2.994,1.068,3.926c0.713,0.933,1.703,1.398,2.971,1.398
						c1.39,0,2.378-0.313,2.965-0.94v-3.045h-3.223v-2.063h5.93V273.529z"/>
				</g>
			</g>
		</g>
		<g>
			<path fill-rule="evenodd" clip-rule="evenodd" fill="#FFFFFF" d="M84.875,189.578v49.021H70.406c0,0,0.006-61.563,0-62.677
				c-0.028-6.729,3.406-9.375,7.75-10.795c4.252-1.39,12.561,0.182,15.073,5.987c3.356,7.752,6.419,15.632,9.616,23.454
				c2.815,6.885,5.635,13.768,8.477,20.643c0.273,0.666,0.271,1.706,1.349,1.634c1.028-0.068,0.965-1.117,1.243-1.781
				c5.719-13.673,11.43-27.348,17.088-41.046c1.281-3.101,0.934-4.405,3.482-6.58c4.781-4.344,16.527-3.654,19.335,2.235
				c0.923,1.932,1.356,3.97,1.354,6.14c-0.032,19.762-0.024,62.786-0.024,62.786H140.64c0,0-0.023-2.117-0.012-3.399
				c0.127-14.285,0.012-45.605,0.012-45.605s-13.046,28.864-16.534,38.201c-0.855,2.291-1.822,4.582-3.078,6.668
				c-2.02,3.35-4.885,5.207-9.111,4.999c-3.921-0.194-6.188-2.337-7.654-5.51c-2.427-5.255-4.618-10.619-6.899-15.94
				C93.372,208.703,84.875,189.578,84.875,189.578z"/>
			<path fill-rule="evenodd" clip-rule="evenodd" fill="#FFFFFF" d="M-2.365,201.498c-2.368-3.439-2.774-7.263-2.723-11.373
				c0.038-2.981,0-5.962-0.11-8.984c-0.275-7.547,3.247-12.929,10.303-15.864c4.031-1.307,27.19-0.358,40.782-0.659
				c4.908-0.108,17.969-0.006,17.969-0.006v13.006c0,0-33.922,0.127-45.972-0.04c-9.614-0.133-10.471,2.926-9.454,12.624
				c0.323,3.085,2.929,4.411,7.416,4.431c10.156,0.044,20.31,0.012,30.465,0.03c11.36,0.022,17.164,5.694,17.286,16.959
				c0.045,4.128,0.119,8.271-0.178,12.38c-0.545,7.545-5.146,12.538-12.584,13.951c-1.856,0.352-3.756,0.654-5.635,0.661
				c-15.289,0.057-50.288-0.015-50.288-0.015s-0.001-3.714,0-4.345c0.003-1.339-0.029-2.679,0.003-4.015
				c0.03-1.267-0.003-4.88-0.003-4.88s33.417-0.003,47.591-0.012c6.131-0.004,7.49-1.284,7.88-7.317
				c0.057-0.889,0.111-1.78,0.12-2.673c0.055-5.49-1.825-7.511-7.35-7.555c-9.709-0.077-19.418-0.105-29.126-0.014
				c-5.26,0.047-10.192-0.738-14.383-4.206c0,0-0.073-0.078-0.073-0.078C-1.313,202.656-1.875,202.172-2.365,201.498z"/>
			<path fill-rule="evenodd" clip-rule="evenodd" fill="#FFFFFF" d="M46.972,119.744"/>
			<path fill-rule="evenodd" clip-rule="evenodd" fill="#FFFFFF" d="M69.394,75.445c0.057,0.075,0.126,0.144,0.169,0.227
				c0.018,0.036-0.018,0.099-0.028,0.15c-0.03-0.139-0.059-0.276-0.087-0.417C69.449,75.404,69.394,75.445,69.394,75.445z"/>
			<polygon fill-rule="evenodd" clip-rule="evenodd" fill="#FFFFFF" points="-24.432,164.604 -11.665,164.611 -11.641,238.599 
				-24.324,238.599 			"/>
		</g>
		<path fill-rule="evenodd" clip-rule="evenodd" fill="#FFFFFF" d="M41.865,138.871c-0.413-0.676-1.365-2.234-2.318-3.794
			c-0.613,4.666-1.035,4.975-5.518,3.925c-0.469,0.864-0.954,1.762-1.442,2.661c-0.26-0.025-0.52-0.049-0.78-0.072
			c0.099-1.389,0.185-2.778,0.302-4.165c0.079-0.926,0.169-1.852,0.314-2.769c0.225-1.411,0.049-3.416,0.885-4.041
			c0.777-0.58,2.657,0.321,3.994,0.559c2.01-6.151,5.869,1.208,8.842-0.81c-0.521-2.967-0.782-6.196-1.743-9.202
			c-0.462-1.447-2.409-2.355-3.365-3.729c-0.811-1.164-1.998-3.138-1.554-3.889c1.087-1.838,2.795-3.563,4.656-4.639
			c5.165-2.988,10.537-5.62,15.405-8.171c-4.591-1.077-9.923-2.328-14.42-3.383c-1.483,2.513-2.395,6.091-4.372,6.836
			c-1.982,0.746-5.03-1.335-7.612-2.176c-0.212-0.558-0.425-1.116-0.637-1.673c-0.941,1.358-1.812,2.773-2.845,4.059
			c-0.948,1.182-2.07,2.226-4.054,3.069c0-2.688-0.043-5.376,0.039-8.062c0.015-0.506,0.412-1.275,0.832-1.452
			c3.244-1.374,3.004-3.696,2.634-6.695c-0.252-2.037,0.585-4.909,2.016-6.285c2.07-1.994,4.21,0.39,6.379,1.324
			c4.274,1.84,8.225,4.756,13.548,3.543c2.77-0.631,5.894,0.302,8.995,0.54c-0.577-1.433-1.163-2.776-1.663-4.15
			c-1.312-3.6-2.813-7.24,2.049-9.562c0.604-0.288,1.161-0.935,1.463-1.551c2.079-4.247,5.385-5.796,10.126-4.366
			c-0.274-0.401-0.548-0.804-0.823-1.205c1.391-1.191,2.626-2.915,4.228-3.379c0.99-0.288,2.536,1.339,3.724,2.042
			c2.768-0.463,6.653-2.364,9.202-1.238c3.614,1.596,5.542,5.783,5.522,9.997c1.242-0.12,3.448-0.638,3.59-0.297
			c0.738,1.774,1.852,4.213,1.168,5.594c-1.718,3.468-2.281,7.961-6.797,9.631c-0.447,0.166-0.571,2.236-0.265,3.245
			c1.532,5.041,3.885,9.921,4.717,15.058c0.662,4.082-0.441,8.453-0.788,12.692c-0.078,0.947-0.529,1.934-0.359,2.816
			c0.486,2.538-1.179,3.01-2.982,3.581c-2.858,0.906-5.827,1.638-8.482,2.976c-2.532,1.277-4.757,3.188-7.058,4.899
			c-3.768,2.805-7.225,6.159-11.302,8.382c-4.069,2.218-8.739,3.333-13.013,4.882c-0.126,1.718-0.211,2.879-0.296,4.039
			c-0.276,0.042-0.552,0.082-0.829,0.122c-0.407-1.091-0.813-2.182-1.233-3.309c-1.996,0-4.847,0.805-5.719-0.168
			c-1.79-1.994-2.757-4.869-3.568-7.531C40.323,142.487,41.269,141.006,41.865,138.871z M52.206,127.822
			c-1.295,1.369-2.589,2.738-3.884,4.107c0.252,0.297,0.505,0.595,0.756,0.893c4.364-3.405,10.38-3.845,14.567-7.57
			c-0.198-0.399-0.396-0.798-0.594-1.197c-3.272,1.142-6.546,2.284-9.818,3.426c0.055-1.659-4.886-1.453-1.864-3.8
			c3.601-2.799,3.463-6.344,3.727-9.96c-2.278,0-4.389,0-6.057,0c-2.225,5.213-3.422,10.231-0.865,15.36
			C49.518,128.661,50.861,128.242,52.206,127.822z M43.025,112.134c0.185,0.23,0.369,0.461,0.554,0.692
			c3.21-2.006,6.346-4.144,9.65-5.981c3.205-1.784,7.44-1.523,9.934-4.763C56.116,104.782,48.318,106.053,43.025,112.134z
			 M59.28,79.907c0.255,0.363,0.508,0.726,0.762,1.089c1.457-1.291,3.253-2.355,4.295-3.921c1.853-2.784,3.763-4.476,7.386-3.31
			c0.736,0.237,1.951-1.014,2.945-1.579c-3.451-0.228-6.83-0.395-9.312,1.016C62.865,74.619,61.27,77.607,59.28,79.907z
			 M46.799,92.692c5.161,0.444,10.497,0.973,15.848,1.28c0.736,0.042,1.535-1.017,2.306-1.566c-0.15-0.339-0.299-0.678-0.448-1.018
			C58.701,94.594,52.29,88.634,46.799,92.692z M50.411,142.701c5.967-0.324,9.828-3.136,10.137-6.417
			C57.106,138.462,53.76,140.582,50.411,142.701z M86.772,68.101c-5.566-0.512-6.868,3.718-9.708,5.818
			c0.292,0.397,0.582,0.794,0.873,1.193C80.673,72.94,83.408,70.769,86.772,68.101z M57.679,136.766
			c-0.19-0.277-0.381-0.554-0.571-0.831c-2.256,1.528-5.758,0.999-7.367,3.595c0.238,0.404,0.476,0.809,0.715,1.213
			C52.862,139.417,55.271,138.091,57.679,136.766z M32.333,92.806c0.227,0.046,0.453,0.093,0.681,0.14
			c0.709-1.439,1.418-2.878,2.127-4.317c-0.955-0.38-1.911-0.76-3.558-1.416C31.91,89.656,32.122,91.231,32.333,92.806z"/>
		<path fill-rule="evenodd" clip-rule="evenodd" fill="#FFFFFF" d="M36.01,149.943c-1.117,1.5-2.103,2.823-3.087,4.145
			c-0.277-0.093-0.554-0.187-0.831-0.281c0.258-1.134,0.448-2.291,0.789-3.401c0.574-1.866,1.283-3.693,1.861-5.56
			c0.641-2.066,2.471-2.958,3.731-1.654c1.633,1.691,2.799,4.135,3.376,6.451c0.543,2.17-1.824,3.355-3.797,2.11
			C37.389,151.336,36.858,150.707,36.01,149.943z"/>
	</g>
</g>
<g id="Layer_4" display="none">
	<g display="inline">
		<g>
			<path fill="#F4A07D" d="M193.693,192.319c-1.716,0-3.378-0.943-4.196-2.585c-1.166-2.313,2.235-23.804,4.741-23.114
				c6.413,1.761,12.48,8.339,16.919,3.166c-2.563-4.105-4.72-8.363-6.175-12.045c-3.853-9.788-3.997-17.553-0.391-22.447
				c4.634-6.295,9.354-6.06,11.771-5.357c6.84,1.999,10.317,12.15,10.65,17.141c0.623,9.336-1.182,16.699-4.498,22.694
				c3.541,4.629,6.888,7.652,8.464,7.942c2.55,0.478,4.229,2.938,3.751,5.487c-0.479,2.544-2.897,4.235-5.48,3.745
				c-4.047-0.754-8.471-4.479-12.517-9.367c-5.865,6.154-13.497,10.489-20.926,14.236
				C195.129,192.158,194.406,192.319,193.693,192.319z M213.801,139.001c-0.021,0.12-0.668,0.537-1.637,1.861
				c-1.122,1.52-1.391,5.959,1.557,13.431c0.817,2.051,1.736,4.043,2.729,5.937c1.094-3.621,1.501-7.731,1.182-12.521
				C217.421,144.461,215.139,139.733,213.801,139.001z"/>
		</g>
		<path fill="#E88C6D" d="M205.111,171.389c-3.315-0.943-7.028-3.712-10.873-4.769c-2.506-0.689-5.907,20.801-4.741,23.114
			c0.818,1.642,2.48,2.585,4.196,2.585c0.713,0,1.436-0.161,2.114-0.504c3.578-1.81,7.198-3.767,10.66-5.98
			C206.429,180.936,205.965,176.111,205.111,171.389z"/>
		<path fill="#F4A07D" d="M-21.205,77.645c0-5.686,3.537-7.177,7.903-3.332l30.785,27.115l-38.688,19.413V77.645z"/>
		<path fill="#E88C6D" d="M-21.205,120.841l38.688-19.413L-2.616,83.729l-4.811,17.755c-4.897,3.136-9.505,6.553-13.777,10.22
			V120.841z"/>
		<g>
			<path fill="#F4A07D" d="M49.626,314.065H21.434c-2.595,0-5.094-2.066-5.582-4.614l-7.641-40.109
				c-0.482-2.556,1.228-4.62,3.819-4.62h37.596c2.6,0,4.704,2.1,4.704,4.699v39.95C54.33,311.966,52.226,314.065,49.626,314.065z"/>
			<path fill="#F4A07D" d="M102.102,314.065h28.201c2.59,0,5.098-2.066,5.573-4.614l7.646-40.109c0.478-2.556-1.224-4.62-3.821-4.62
				h-37.6c-2.593,0-4.691,2.1-4.691,4.699v39.95C97.41,311.966,99.509,314.065,102.102,314.065z"/>
		</g>
		<path fill="#E88C6D" d="M49.626,264.722H12.03c-2.591,0-4.301,2.064-3.819,4.62l1.864,9.751
			c12.999,6.126,29.08,9.862,44.254,9.273v-18.945C54.33,266.821,52.223,264.722,49.626,264.722z"/>
		<path fill="#E88C6D" d="M139.701,264.722h-37.6c-2.593,0-4.691,2.1-4.691,4.699v19.005c0,0,33.385-1.97,44.027-8.171l2.085-10.913
			C144,266.786,142.299,264.722,139.701,264.722z"/>
		<path fill="#F4A07D" d="M-42.739,148.33c-2.227,4.501-7.823,8.323-13.014,8.323h-1.531c-5.19,0-9.4,4.041-9.4,9.024v41.337
			c0,4.979,4.21,9.02,9.4,9.02h1.536c5.187,0,10.783,3.826,13.02,8.326c18.792,37.848,64.8,64.596,118.597,64.596
			c70.507,0,127.672-45.942,127.672-102.611c0-56.673-57.165-102.614-127.672-102.614C22.071,83.729-23.937,110.477-42.739,148.33z"
			/>
		<path fill="#828487" d="M-1.86,150.962c0,5.516-4.473,9.995-9.999,9.995c-5.513,0-9.986-4.479-9.986-9.995
			c0-5.521,4.474-9.991,9.986-9.991C-6.333,140.971-1.86,145.44-1.86,150.962z"/>
		<path fill="#F4F7F9" d="M-12.533,151.331c-1.242,2.412-3.762,3.574-5.638,2.607c-1.867-0.963-2.378-3.696-1.136-6.096
			c1.238-2.407,3.764-3.576,5.632-2.613C-11.804,146.198-11.293,148.927-12.533,151.331z"/>
		<path fill="#F4A07D" d="M2.409,68.329c1.179-5.574,4.951-6.361,8.438-1.767L35.43,98.986l-41.927,11.686L2.409,68.329z"/>
		<g>
			<path fill="#F4BBA6" d="M122.766,111.679c-0.862,0-1.729-0.225-2.513-0.699c-0.13-0.084-15.404-9.053-41.151-9.063
				c-0.026,0-0.048,0-0.075,0c-31.695,0-44.938,8.654-45.062,8.745c-2.115,1.422-5.047,0.948-6.542-1.068
				c-1.501-2.017-1.037-4.808,1.054-6.26c0.607-0.424,15.414-10.445,50.551-10.445c0.027,0,0.049,0,0.077,0
				c28.647,0.015,45.479,10.042,46.182,10.464c2.194,1.334,2.838,4.121,1.456,6.225C125.85,110.936,124.323,111.679,122.766,111.679
				z"/>
		</g>
		<g>
			<path fill="#E88C6D" d="M122.766,113.041c-0.862,0-1.729-0.226-2.513-0.697c-0.13-0.086-15.404-9.054-41.151-9.07
				c-0.026,0-0.048,0-0.075,0c-31.695,0-44.938,8.661-45.062,8.75c-2.115,1.426-5.047,0.952-6.542-1.066
				c-1.501-2.02-1.037-4.805,1.054-6.257c0.607-0.427,15.414-10.444,50.551-10.444c0.027,0,0.049,0,0.077,0
				c28.647,0.01,45.479,10.035,46.182,10.465c2.194,1.326,2.838,4.12,1.456,6.22C125.85,112.298,124.323,113.041,122.766,113.041z"
				/>
		</g>
		<polygon fill="#E88C6D" points="216.449,160.229 222.516,169.771 223.748,167.322 216.79,159 		"/>
		<path fill="#E88C6D" d="M191.872,180.203c-12.549,46.121-65.181,80.748-128.247,80.748c-34.581,0-66.027-10.416-89.453-27.419
			c-4.065-2.953-5.162-2.047-2.222,2.02c20.496,28.424,59.599,47.643,104.492,47.643c66.138,0,119.759-41.677,119.759-93.095
			c0-3.333-0.233-6.626-0.675-9.866C194.86,175.259,193.18,175.353,191.872,180.203z"/>
	</g>
	<path display="inline" fill="#F6D000" d="M114.376,39.264c0,20.295-16.449,36.749-36.751,36.749
		c-20.298,0-36.748-16.454-36.748-36.749c0-20.299,16.45-36.751,36.748-36.751C97.927,2.513,114.376,18.964,114.376,39.264z"/>
	<path display="inline" fill="#D7983E" d="M110.486,39.264c0,18.146-14.717,32.862-32.861,32.862
		c-18.146,0-32.856-14.715-32.856-32.862c0-18.152,14.71-32.864,32.856-32.864C95.77,6.399,110.486,21.111,110.486,39.264z"/>
	<path display="inline" fill="#FBDE13" d="M110.486,41.772c0,18.138-14.717,32.86-32.861,32.86
		c-18.156,0-32.852-14.722-32.852-32.86c0-18.157,14.695-32.856,32.852-32.856C95.77,8.916,110.486,23.615,110.486,41.772z"/>
	<path display="inline" opacity="0.22" fill="#FFFFFF" d="M110.486,41.772c0,18.138-14.717,32.86-32.861,32.86V8.916
		C95.77,8.916,110.486,23.615,110.486,41.772z"/>
	<path display="inline" fill="#FCC400" d="M99.125,9.461c-6.026-4.381-13.462-6.952-21.5-6.952
		c-20.295,0-36.748,16.454-36.748,36.75c0,8.02,2.574,15.452,6.947,21.5c6.686,9.241,17.547,15.25,29.801,15.25
		c20.302,0,36.751-16.454,36.751-36.75C114.376,26.998,108.359,16.123,99.125,9.461z M77.625,72.118
		c-11.208,0-21.076-5.597-27.011-14.149c-3.691-5.313-5.846-11.759-5.846-18.71c0-18.156,14.7-32.859,32.856-32.859
		c6.953,0,13.403,2.157,18.713,5.847c8.551,5.933,14.148,15.804,14.148,27.012C110.486,57.402,95.767,72.118,77.625,72.118z"/>
	<path display="inline" fill="#F8B200" d="M114.376,39.269c0,20.296-16.444,36.75-36.751,36.75
		c-12.254,0-23.115-6.017-29.801-15.252l2.799-2.79c5.928,8.552,15.799,14.148,27.002,14.148c18.145,0,32.861-14.717,32.861-32.857
		c0-11.21-5.588-21.083-14.146-27.014l2.788-2.789C108.366,16.131,114.376,27.007,114.376,39.269z"/>
	<g display="inline">
		<g>
			<linearGradient id="SVGID_1_" gradientUnits="userSpaceOnUse" x1="40.8877" y1="39.3525" x2="114.6357" y2="39.3525">
				<stop  offset="0" style="stop-color:#FFFFFF"/>
				<stop  offset="1" style="stop-color:#F8B200"/>
			</linearGradient>
			<path fill="url(#SVGID_1_)" d="M77.765,76.222c-20.333,0-36.877-16.538-36.877-36.872c0-20.329,16.544-36.867,36.877-36.867
				c20.326,0,36.871,16.539,36.871,36.867C114.636,59.685,98.091,76.222,77.765,76.222z M77.765,2.722
				c-20.202,0-36.634,16.431-36.634,36.628c0,20.2,16.432,36.63,36.634,36.63c20.196,0,36.626-16.431,36.626-36.63
				C114.391,19.153,97.961,2.722,77.765,2.722z"/>
		</g>
	</g>
</g>
<g id="DriveSave" display="none">
	<g display="inline">
		<g id="Smartphone2_2_">
			<path fill="#3F3F3F" d="M217.833,65.126v-51.99c0-6.15-4.986-11.136-11.136-11.136H72.125c-6.15,0-11.138,4.986-11.138,11.136
				v43.513h-1.16v42.476h1.16v4.516h-1.16v13.858h1.16v180.562c0,6.147,4.987,11.133,11.138,11.133l134.572,0.002
				c6.149,0,11.136-4.987,11.136-11.135V90.649h1.161V65.126H217.833z"/>
			<path fill="#4D4C4C" d="M72.125,2c-6.15,0-11.138,4.986-11.138,11.137V56.65h-1.16v42.475h1.16v4.516h-1.16v13.858h1.16v180.562
				c0,6.147,4.987,11.135,11.138,11.135h18.18L164.638,2H72.125z"/>
			<g>
				<g>
					<path fill="#CDCCCC" d="M197.724,12.29c2.018,0,3.663,1.642,3.663,3.662s-1.646,3.661-3.663,3.661
						c-2.02,0-3.661-1.641-3.661-3.661S195.704,12.29,197.724,12.29L197.724,12.29z M197.724,19.107c1.74,0,3.157-1.416,3.157-3.156
						c0-1.741-1.417-3.157-3.157-3.157s-3.156,1.416-3.156,3.157C194.567,17.691,195.983,19.107,197.724,19.107L197.724,19.107z"/>
				</g>
				<g>
					<path fill="#4E4D4D" d="M200.284,15.951c0,1.414-1.144,2.56-2.561,2.56c-1.413,0-2.56-1.146-2.56-2.56
						c0-1.413,1.146-2.56,2.56-2.56C199.141,13.392,200.284,14.538,200.284,15.951z"/>
				</g>
				<g>
					<path fill="#CDCCCC" d="M200.031,15.951c-2.192,0-3.292,0-4.613,0c0-1.273,1.032-2.308,2.306-2.308
						S200.031,14.678,200.031,15.951z"/>
				</g>
			</g>
			<g>
				<g>
					<path fill="#FBFBFB" d="M155.963,287.026c0,1.665-1.366,3.03-3.032,3.03h-27.038c-1.668,0-3.033-1.365-3.033-3.03v-7.635
						c0-1.67,1.365-3.032,3.033-3.032h27.038c1.666,0,3.032,1.362,3.032,3.032V287.026z"/>
				</g>
				<g>
					<path fill="#CDCCCC" d="M125.893,275.853h27.038c1.949,0,3.537,1.588,3.537,3.539v7.635c0,1.948-1.588,3.536-3.537,3.536
						h-27.038c-1.95,0-3.537-1.588-3.537-3.536v-7.635C122.355,277.44,123.942,275.853,125.893,275.853L125.893,275.853z
						 M152.931,289.552c1.393,0,2.525-1.134,2.525-2.525v-7.635c0-1.395-1.133-2.529-2.525-2.529h-27.038
						c-1.395,0-2.527,1.135-2.527,2.529v7.635c0,1.392,1.133,2.525,2.527,2.525H152.931L152.931,289.552z"/>
				</g>
			</g>
			<g>
				<g>
					<path fill="#68728C" d="M208.553,259.925c0,0.555-0.455,1.012-1.011,1.012H71.28c-0.556,0-1.013-0.458-1.013-1.012V30.543
						c0-0.555,0.457-1.01,1.013-1.01h136.262c0.556,0,1.011,0.455,1.011,1.01V259.925z"/>
				</g>
				<g>
					<polygon fill="#707992" points="70.268,29.533 70.268,260.937 101.948,260.937 157.784,29.533 					"/>
				</g>
			</g>
			<g>
				<g>
					<rect x="100.395" y="12.89" fill="#FFFFFF" width="78.032" height="6.125"/>
				</g>
				<g>
					<rect x="100.955" y="13.426" fill="#CDCCCC" width="0.89" height="1.516"/>
				</g>
				<g>
					<rect x="102.244" y="13.426" fill="#CDCCCC" width="0.889" height="1.516"/>
				</g>
				<g>
					<rect x="103.534" y="13.426" fill="#CDCCCC" width="0.886" height="1.516"/>
				</g>
				<g>
					<rect x="104.821" y="13.426" fill="#CDCCCC" width="0.889" height="1.516"/>
				</g>
				<g>
					<rect x="106.112" y="13.426" fill="#CDCCCC" width="0.886" height="1.516"/>
				</g>
				<g>
					<rect x="107.4" y="13.426" fill="#CDCCCC" width="0.888" height="1.516"/>
				</g>
				<g>
					<rect x="108.687" y="13.426" fill="#CDCCCC" width="0.89" height="1.516"/>
				</g>
				<g>
					<rect x="109.976" y="13.426" fill="#CDCCCC" width="0.888" height="1.516"/>
				</g>
				<g>
					<rect x="111.266" y="13.426" fill="#CDCCCC" width="0.887" height="1.516"/>
				</g>
				<g>
					<rect x="112.554" y="13.426" fill="#CDCCCC" width="0.889" height="1.516"/>
				</g>
				<g>
					<rect x="113.842" y="13.426" fill="#CDCCCC" width="0.888" height="1.516"/>
				</g>
				<g>
					<rect x="115.131" y="13.426" fill="#CDCCCC" width="0.886" height="1.516"/>
				</g>
				<g>
					<rect x="116.418" y="13.426" fill="#CDCCCC" width="0.889" height="1.516"/>
				</g>
				<g>
					<rect x="117.706" y="13.426" fill="#CDCCCC" width="0.887" height="1.516"/>
				</g>
				<g>
					<rect x="118.995" y="13.426" fill="#CDCCCC" width="0.888" height="1.516"/>
				</g>
				<g>
					<rect x="120.283" y="13.426" fill="#CDCCCC" width="0.889" height="1.516"/>
				</g>
				<g>
					<rect x="121.572" y="13.426" fill="#CDCCCC" width="0.89" height="1.516"/>
				</g>
				<g>
					<rect x="122.862" y="13.426" fill="#CDCCCC" width="0.886" height="1.516"/>
				</g>
				<g>
					<rect x="124.149" y="13.426" fill="#CDCCCC" width="0.887" height="1.516"/>
				</g>
				<g>
					<rect x="125.438" y="13.426" fill="#CDCCCC" width="0.888" height="1.516"/>
				</g>
				<g>
					<rect x="126.729" y="13.426" fill="#CDCCCC" width="0.887" height="1.516"/>
				</g>
				<g>
					<rect x="128.014" y="13.426" fill="#CDCCCC" width="0.891" height="1.516"/>
				</g>
				<g>
					<rect x="129.304" y="13.426" fill="#CDCCCC" width="0.889" height="1.516"/>
				</g>
				<g>
					<rect x="130.591" y="13.426" fill="#CDCCCC" width="0.89" height="1.516"/>
				</g>
				<g>
					<rect x="131.882" y="13.426" fill="#CDCCCC" width="0.885" height="1.516"/>
				</g>
				<g>
					<rect x="133.169" y="13.426" fill="#CDCCCC" width="0.888" height="1.516"/>
				</g>
				<g>
					<rect x="134.458" y="13.426" fill="#CDCCCC" width="0.887" height="1.516"/>
				</g>
				<g>
					<rect x="135.747" y="13.426" fill="#CDCCCC" width="0.887" height="1.516"/>
				</g>
				<g>
					<rect x="137.033" y="13.426" fill="#CDCCCC" width="0.892" height="1.516"/>
				</g>
				<g>
					<rect x="138.323" y="13.426" fill="#CDCCCC" width="0.886" height="1.516"/>
				</g>
				<g>
					<rect x="139.611" y="13.426" fill="#CDCCCC" width="0.888" height="1.516"/>
				</g>
				<g>
					<rect x="140.9" y="13.426" fill="#CDCCCC" width="0.889" height="1.516"/>
				</g>
				<g>
					<rect x="142.188" y="13.426" fill="#CDCCCC" width="0.888" height="1.516"/>
				</g>
				<g>
					<rect x="143.479" y="13.426" fill="#CDCCCC" width="0.886" height="1.516"/>
				</g>
				<g>
					<rect x="144.766" y="13.426" fill="#CDCCCC" width="0.888" height="1.516"/>
				</g>
				<g>
					<rect x="146.055" y="13.426" fill="#CDCCCC" width="0.886" height="1.516"/>
				</g>
				<g>
					<rect x="147.343" y="13.426" fill="#CDCCCC" width="0.889" height="1.516"/>
				</g>
				<g>
					<rect x="148.63" y="13.426" fill="#CDCCCC" width="0.89" height="1.516"/>
				</g>
				<g>
					<rect x="149.92" y="13.426" fill="#CDCCCC" width="0.887" height="1.516"/>
				</g>
				<g>
					<rect x="151.207" y="13.426" fill="#CDCCCC" width="0.888" height="1.516"/>
				</g>
				<g>
					<rect x="152.496" y="13.426" fill="#CDCCCC" width="0.887" height="1.516"/>
				</g>
				<g>
					<rect x="153.785" y="13.426" fill="#CDCCCC" width="0.887" height="1.516"/>
				</g>
				<g>
					<rect x="155.075" y="13.426" fill="#CDCCCC" width="0.886" height="1.516"/>
				</g>
				<g>
					<rect x="156.361" y="13.426" fill="#CDCCCC" width="0.89" height="1.516"/>
				</g>
				<g>
					<rect x="157.649" y="13.426" fill="#CDCCCC" width="0.889" height="1.516"/>
				</g>
				<g>
					<rect x="158.939" y="13.426" fill="#CDCCCC" width="0.887" height="1.516"/>
				</g>
				<g>
					<rect x="160.228" y="13.426" fill="#CDCCCC" width="0.887" height="1.516"/>
				</g>
				<g>
					<rect x="161.517" y="13.426" fill="#CDCCCC" width="0.886" height="1.516"/>
				</g>
				<g>
					<rect x="162.807" y="13.426" fill="#CDCCCC" width="0.887" height="1.516"/>
				</g>
				<g>
					<rect x="164.094" y="13.426" fill="#CDCCCC" width="0.889" height="1.516"/>
				</g>
				<g>
					<rect x="165.382" y="13.426" fill="#CDCCCC" width="0.89" height="1.516"/>
				</g>
				<g>
					<rect x="166.67" y="13.426" fill="#CDCCCC" width="0.887" height="1.516"/>
				</g>
				<g>
					<rect x="167.958" y="13.426" fill="#CDCCCC" width="0.89" height="1.516"/>
				</g>
				<g>
					<rect x="169.247" y="13.426" fill="#CDCCCC" width="0.889" height="1.516"/>
				</g>
				<g>
					<rect x="170.535" y="13.426" fill="#CDCCCC" width="0.887" height="1.516"/>
				</g>
				<g>
					<rect x="171.823" y="13.426" fill="#CDCCCC" width="0.889" height="1.516"/>
				</g>
				<g>
					<rect x="173.112" y="13.426" fill="#CDCCCC" width="0.888" height="1.516"/>
				</g>
				<g>
					<rect x="174.402" y="13.426" fill="#CDCCCC" width="0.887" height="1.516"/>
				</g>
				<g>
					<rect x="175.689" y="13.426" fill="#CDCCCC" width="0.889" height="1.516"/>
				</g>
				<g>
					<rect x="176.978" y="13.426" fill="#CDCCCC" width="0.89" height="1.516"/>
				</g>
				<g>
					<rect x="100.955" y="15.193" fill="#CDCCCC" width="0.89" height="1.517"/>
				</g>
				<g>
					<rect x="102.244" y="15.193" fill="#CDCCCC" width="0.889" height="1.517"/>
				</g>
				<g>
					<rect x="103.534" y="15.193" fill="#CDCCCC" width="0.886" height="1.517"/>
				</g>
				<g>
					<rect x="104.821" y="15.193" fill="#CDCCCC" width="0.889" height="1.517"/>
				</g>
				<g>
					<rect x="106.112" y="15.193" fill="#CDCCCC" width="0.886" height="1.517"/>
				</g>
				<g>
					<rect x="107.4" y="15.193" fill="#CDCCCC" width="0.888" height="1.517"/>
				</g>
				<g>
					<rect x="108.687" y="15.193" fill="#CDCCCC" width="0.89" height="1.517"/>
				</g>
				<g>
					<rect x="109.976" y="15.193" fill="#CDCCCC" width="0.888" height="1.517"/>
				</g>
				<g>
					<rect x="111.266" y="15.193" fill="#CDCCCC" width="0.887" height="1.517"/>
				</g>
				<g>
					<rect x="112.554" y="15.193" fill="#CDCCCC" width="0.889" height="1.517"/>
				</g>
				<g>
					<rect x="113.842" y="15.193" fill="#CDCCCC" width="0.888" height="1.517"/>
				</g>
				<g>
					<rect x="115.131" y="15.193" fill="#CDCCCC" width="0.886" height="1.517"/>
				</g>
				<g>
					<rect x="116.418" y="15.193" fill="#CDCCCC" width="0.889" height="1.517"/>
				</g>
				<g>
					<rect x="117.706" y="15.193" fill="#CDCCCC" width="0.887" height="1.517"/>
				</g>
				<g>
					<rect x="118.995" y="15.193" fill="#CDCCCC" width="0.888" height="1.517"/>
				</g>
				<g>
					<rect x="120.283" y="15.193" fill="#CDCCCC" width="0.889" height="1.517"/>
				</g>
				<g>
					<rect x="121.572" y="15.193" fill="#CDCCCC" width="0.89" height="1.517"/>
				</g>
				<g>
					<rect x="122.862" y="15.193" fill="#CDCCCC" width="0.886" height="1.517"/>
				</g>
				<g>
					<rect x="124.149" y="15.193" fill="#CDCCCC" width="0.887" height="1.517"/>
				</g>
				<g>
					<rect x="125.438" y="15.193" fill="#CDCCCC" width="0.888" height="1.517"/>
				</g>
				<g>
					<rect x="126.729" y="15.193" fill="#CDCCCC" width="0.887" height="1.517"/>
				</g>
				<g>
					<rect x="128.014" y="15.193" fill="#CDCCCC" width="0.891" height="1.517"/>
				</g>
				<g>
					<rect x="129.304" y="15.193" fill="#CDCCCC" width="0.889" height="1.517"/>
				</g>
				<g>
					<rect x="130.591" y="15.193" fill="#CDCCCC" width="0.89" height="1.517"/>
				</g>
				<g>
					<rect x="131.882" y="15.193" fill="#CDCCCC" width="0.885" height="1.517"/>
				</g>
				<g>
					<rect x="133.169" y="15.193" fill="#CDCCCC" width="0.888" height="1.517"/>
				</g>
				<g>
					<rect x="134.458" y="15.193" fill="#CDCCCC" width="0.887" height="1.517"/>
				</g>
				<g>
					<rect x="135.747" y="15.193" fill="#CDCCCC" width="0.887" height="1.517"/>
				</g>
				<g>
					<rect x="137.033" y="15.193" fill="#CDCCCC" width="0.892" height="1.517"/>
				</g>
				<g>
					<rect x="138.323" y="15.193" fill="#CDCCCC" width="0.886" height="1.517"/>
				</g>
				<g>
					<rect x="139.611" y="15.193" fill="#CDCCCC" width="0.888" height="1.517"/>
				</g>
				<g>
					<rect x="140.9" y="15.193" fill="#CDCCCC" width="0.889" height="1.517"/>
				</g>
				<g>
					<rect x="142.188" y="15.193" fill="#CDCCCC" width="0.888" height="1.517"/>
				</g>
				<g>
					<rect x="143.479" y="15.193" fill="#CDCCCC" width="0.886" height="1.517"/>
				</g>
				<g>
					<rect x="144.766" y="15.193" fill="#CDCCCC" width="0.888" height="1.517"/>
				</g>
				<g>
					<rect x="146.055" y="15.193" fill="#CDCCCC" width="0.886" height="1.517"/>
				</g>
				<g>
					<rect x="147.343" y="15.193" fill="#CDCCCC" width="0.889" height="1.517"/>
				</g>
				<g>
					<rect x="148.63" y="15.193" fill="#CDCCCC" width="0.89" height="1.517"/>
				</g>
				<g>
					<rect x="149.92" y="15.193" fill="#CDCCCC" width="0.887" height="1.517"/>
				</g>
				<g>
					<rect x="151.207" y="15.193" fill="#CDCCCC" width="0.888" height="1.517"/>
				</g>
				<g>
					<rect x="152.496" y="15.193" fill="#CDCCCC" width="0.887" height="1.517"/>
				</g>
				<g>
					<rect x="153.785" y="15.193" fill="#CDCCCC" width="0.887" height="1.517"/>
				</g>
				<g>
					<rect x="155.075" y="15.193" fill="#CDCCCC" width="0.886" height="1.517"/>
				</g>
				<g>
					<rect x="156.361" y="15.193" fill="#CDCCCC" width="0.89" height="1.517"/>
				</g>
				<g>
					<rect x="157.649" y="15.193" fill="#CDCCCC" width="0.889" height="1.517"/>
				</g>
				<g>
					<rect x="158.939" y="15.193" fill="#CDCCCC" width="0.887" height="1.517"/>
				</g>
				<g>
					<rect x="160.228" y="15.193" fill="#CDCCCC" width="0.887" height="1.517"/>
				</g>
				<g>
					<rect x="161.517" y="15.193" fill="#CDCCCC" width="0.886" height="1.517"/>
				</g>
				<g>
					<rect x="162.807" y="15.193" fill="#CDCCCC" width="0.887" height="1.517"/>
				</g>
				<g>
					<rect x="164.094" y="15.193" fill="#CDCCCC" width="0.889" height="1.517"/>
				</g>
				<g>
					<rect x="165.382" y="15.193" fill="#CDCCCC" width="0.89" height="1.517"/>
				</g>
				<g>
					<rect x="166.67" y="15.193" fill="#CDCCCC" width="0.887" height="1.517"/>
				</g>
				<g>
					<rect x="167.958" y="15.193" fill="#CDCCCC" width="0.89" height="1.517"/>
				</g>
				<g>
					<rect x="169.247" y="15.193" fill="#CDCCCC" width="0.889" height="1.517"/>
				</g>
				<g>
					<rect x="170.535" y="15.193" fill="#CDCCCC" width="0.887" height="1.517"/>
				</g>
				<g>
					<rect x="171.823" y="15.193" fill="#CDCCCC" width="0.889" height="1.517"/>
				</g>
				<g>
					<rect x="173.112" y="15.193" fill="#CDCCCC" width="0.888" height="1.517"/>
				</g>
				<g>
					<rect x="174.402" y="15.193" fill="#CDCCCC" width="0.887" height="1.517"/>
				</g>
				<g>
					<rect x="175.689" y="15.193" fill="#CDCCCC" width="0.889" height="1.517"/>
				</g>
				<g>
					<rect x="176.978" y="15.193" fill="#CDCCCC" width="0.89" height="1.517"/>
				</g>
				<g>
					<rect x="100.955" y="16.961" fill="#CDCCCC" width="0.89" height="1.516"/>
				</g>
				<g>
					<rect x="102.244" y="16.961" fill="#CDCCCC" width="0.889" height="1.516"/>
				</g>
				<g>
					<rect x="103.534" y="16.961" fill="#CDCCCC" width="0.886" height="1.516"/>
				</g>
				<g>
					<rect x="104.821" y="16.961" fill="#CDCCCC" width="0.889" height="1.516"/>
				</g>
				<g>
					<rect x="106.112" y="16.961" fill="#CDCCCC" width="0.886" height="1.516"/>
				</g>
				<g>
					<rect x="107.4" y="16.961" fill="#CDCCCC" width="0.888" height="1.516"/>
				</g>
				<g>
					<rect x="108.687" y="16.961" fill="#CDCCCC" width="0.89" height="1.516"/>
				</g>
				<g>
					<rect x="109.976" y="16.961" fill="#CDCCCC" width="0.888" height="1.516"/>
				</g>
				<g>
					<rect x="111.266" y="16.961" fill="#CDCCCC" width="0.887" height="1.516"/>
				</g>
				<g>
					<rect x="112.554" y="16.961" fill="#CDCCCC" width="0.889" height="1.516"/>
				</g>
				<g>
					<rect x="113.842" y="16.961" fill="#CDCCCC" width="0.888" height="1.516"/>
				</g>
				<g>
					<rect x="115.131" y="16.961" fill="#CDCCCC" width="0.886" height="1.516"/>
				</g>
				<g>
					<rect x="116.418" y="16.961" fill="#CDCCCC" width="0.889" height="1.516"/>
				</g>
				<g>
					<rect x="117.706" y="16.961" fill="#CDCCCC" width="0.887" height="1.516"/>
				</g>
				<g>
					<rect x="118.995" y="16.961" fill="#CDCCCC" width="0.888" height="1.516"/>
				</g>
				<g>
					<rect x="120.283" y="16.961" fill="#CDCCCC" width="0.889" height="1.516"/>
				</g>
				<g>
					<rect x="121.572" y="16.961" fill="#CDCCCC" width="0.89" height="1.516"/>
				</g>
				<g>
					<rect x="122.862" y="16.961" fill="#CDCCCC" width="0.886" height="1.516"/>
				</g>
				<g>
					<rect x="124.149" y="16.961" fill="#CDCCCC" width="0.887" height="1.516"/>
				</g>
				<g>
					<rect x="125.438" y="16.961" fill="#CDCCCC" width="0.888" height="1.516"/>
				</g>
				<g>
					<rect x="126.729" y="16.961" fill="#CDCCCC" width="0.887" height="1.516"/>
				</g>
				<g>
					<rect x="128.014" y="16.961" fill="#CDCCCC" width="0.891" height="1.516"/>
				</g>
				<g>
					<rect x="129.304" y="16.961" fill="#CDCCCC" width="0.889" height="1.516"/>
				</g>
				<g>
					<rect x="130.591" y="16.961" fill="#CDCCCC" width="0.89" height="1.516"/>
				</g>
				<g>
					<rect x="131.882" y="16.961" fill="#CDCCCC" width="0.885" height="1.516"/>
				</g>
				<g>
					<rect x="133.169" y="16.961" fill="#CDCCCC" width="0.888" height="1.516"/>
				</g>
				<g>
					<rect x="134.458" y="16.961" fill="#CDCCCC" width="0.887" height="1.516"/>
				</g>
				<g>
					<rect x="135.747" y="16.961" fill="#CDCCCC" width="0.887" height="1.516"/>
				</g>
				<g>
					<rect x="137.033" y="16.961" fill="#CDCCCC" width="0.892" height="1.516"/>
				</g>
				<g>
					<rect x="138.323" y="16.961" fill="#CDCCCC" width="0.886" height="1.516"/>
				</g>
				<g>
					<rect x="139.611" y="16.961" fill="#CDCCCC" width="0.888" height="1.516"/>
				</g>
				<g>
					<rect x="140.9" y="16.961" fill="#CDCCCC" width="0.889" height="1.516"/>
				</g>
				<g>
					<rect x="142.188" y="16.961" fill="#CDCCCC" width="0.888" height="1.516"/>
				</g>
				<g>
					<rect x="143.479" y="16.961" fill="#CDCCCC" width="0.886" height="1.516"/>
				</g>
				<g>
					<rect x="144.766" y="16.961" fill="#CDCCCC" width="0.888" height="1.516"/>
				</g>
				<g>
					<rect x="146.055" y="16.961" fill="#CDCCCC" width="0.886" height="1.516"/>
				</g>
				<g>
					<rect x="147.343" y="16.961" fill="#CDCCCC" width="0.889" height="1.516"/>
				</g>
				<g>
					<rect x="148.63" y="16.961" fill="#CDCCCC" width="0.89" height="1.516"/>
				</g>
				<g>
					<rect x="149.92" y="16.961" fill="#CDCCCC" width="0.887" height="1.516"/>
				</g>
				<g>
					<rect x="151.207" y="16.961" fill="#CDCCCC" width="0.888" height="1.516"/>
				</g>
				<g>
					<rect x="152.496" y="16.961" fill="#CDCCCC" width="0.887" height="1.516"/>
				</g>
				<g>
					<rect x="153.785" y="16.961" fill="#CDCCCC" width="0.887" height="1.516"/>
				</g>
				<g>
					<rect x="155.075" y="16.961" fill="#CDCCCC" width="0.886" height="1.516"/>
				</g>
				<g>
					<rect x="156.361" y="16.961" fill="#CDCCCC" width="0.89" height="1.516"/>
				</g>
				<g>
					<rect x="157.649" y="16.961" fill="#CDCCCC" width="0.889" height="1.516"/>
				</g>
				<g>
					<rect x="158.939" y="16.961" fill="#CDCCCC" width="0.887" height="1.516"/>
				</g>
				<g>
					<rect x="160.228" y="16.961" fill="#CDCCCC" width="0.887" height="1.516"/>
				</g>
				<g>
					<rect x="161.517" y="16.961" fill="#CDCCCC" width="0.886" height="1.516"/>
				</g>
				<g>
					<rect x="162.807" y="16.961" fill="#CDCCCC" width="0.887" height="1.516"/>
				</g>
				<g>
					<rect x="164.094" y="16.961" fill="#CDCCCC" width="0.889" height="1.516"/>
				</g>
				<g>
					<rect x="165.382" y="16.961" fill="#CDCCCC" width="0.89" height="1.516"/>
				</g>
				<g>
					<rect x="166.67" y="16.961" fill="#CDCCCC" width="0.887" height="1.516"/>
				</g>
				<g>
					<rect x="167.958" y="16.961" fill="#CDCCCC" width="0.89" height="1.516"/>
				</g>
				<g>
					<rect x="169.247" y="16.961" fill="#CDCCCC" width="0.889" height="1.516"/>
				</g>
				<g>
					<rect x="170.535" y="16.961" fill="#CDCCCC" width="0.887" height="1.516"/>
				</g>
				<g>
					<rect x="171.823" y="16.961" fill="#CDCCCC" width="0.889" height="1.516"/>
				</g>
				<g>
					<rect x="173.112" y="16.961" fill="#CDCCCC" width="0.888" height="1.516"/>
				</g>
				<g>
					<rect x="174.402" y="16.961" fill="#CDCCCC" width="0.887" height="1.516"/>
				</g>
				<g>
					<rect x="175.689" y="16.961" fill="#CDCCCC" width="0.889" height="1.516"/>
				</g>
				<g>
					<rect x="176.978" y="16.961" fill="#CDCCCC" width="0.89" height="1.516"/>
				</g>
			</g>
		</g>
		<path fill="#FFFFFF" d="M188.223,253.11v-13.927c-1.206,0.501-2.613,0.827-4.229,0.971c-2.579,0.23-6.75,0.448-11.811,0.635
			v12.321"/>
		<path fill="#FFFFFF" d="M105.038,253.11v-12.319c-5.082-0.188-9.271-0.405-11.858-0.637c-1.594-0.143-2.987-0.459-4.181-0.948
			v13.904"/>
		<g>
			<g>
				<path fill="#FFFFFF" d="M184.122,201.809c-2.35-16.411-5.083-36.392-21.214-36.392c-16.854,0-14.083,0-24.276,0
					c-10.195,0-7.424,0-24.277,0c-16.127,0-18.863,19.969-21.212,36.374c-8.649,4.584-7.793,14.634-7.793,20.279
					c0,7.068,0,5.586,0,8.304s0.407,7.476,8.02,8.155c7.611,0.681,28.407,1.224,45.263,1.224c16.854,0,37.65-0.543,45.262-1.224
					c7.612-0.68,8.019-5.438,8.019-8.155s0-1.088,0-8.155C191.912,216.575,192.77,206.432,184.122,201.809z M99.033,192.4
					c1.723-11.712,6.738-22.313,17.945-22.313c15.168,0,12.478,0,21.653,0c9.174,0,6.483,0,21.652,0
					c11.484,0,16.369,11.136,18.071,23.187c0.169,2.96-1.137,4.447-5.591,4.2c-4.895-0.272-21.04-1.088-34.089-1.088
					c-0.007,0-0.016,0.001-0.022,0.001c-0.008,0-0.015-0.001-0.021-0.001c-13.05,0-29.196,0.815-34.089,1.088
					C99.667,197.744,98.559,195.942,99.033,192.4z M89.843,216.261c-0.125-1.982,1.688-6.068,8.319-3.592
					c3.099,1.155,4.529,1.912,7.042,3.663c5.381,3.746,3.35,5.841,2.291,6.372c-1.058,0.531-2.785,1.145-7.65,0.076
					c-2.273-0.499-3.387-0.721-5.518-1.163C89.762,220.67,89.968,218.244,89.843,216.261z M119.499,235.745l-24.875-1.175
					c-1.501,0-2.718-1.217-2.718-2.719s1.217-1.544,2.718-1.544h24.875c1.501,0,2.718,1.218,2.718,2.719
					S121,235.745,119.499,235.745z M111.639,218.077c-1.555-0.685-2.126-2.36-1.3-3.671c0.826-1.312,2.112-2.511,3.614-2.511
					c18.395,0,30.921,0,49.314,0c1.502,0,2.789,1.199,3.615,2.511c0.826,1.311,0.255,2.986-1.3,3.671
					C145.221,225.887,132.001,225.887,111.639,218.077z M182.617,234.57l-24.875,1.175c-1.5,0-2.718-1.218-2.718-2.719
					s1.218-2.719,2.718-2.719h24.875c1.501,0,2.719,0.042,2.719,1.544S184.118,234.57,182.617,234.57z M187.438,216.261
					c-0.125,1.983,0.081,4.409-4.483,5.356c-2.132,0.442-3.245,0.664-5.518,1.163c-4.866,1.068-6.593,0.455-7.65-0.076
					c-1.059-0.531-3.09-2.626,2.291-6.372c2.514-1.751,3.942-2.508,7.042-3.663C185.751,210.192,187.564,214.278,187.438,216.261z"
					/>
			</g>
		</g>
		<g>
			<g>
				<path fill="#9AC556" stroke="#FFFFFF" stroke-width="2" stroke-miterlimit="10" d="M198.719,88.053
					c0,1.56-0.595,3.119-1.785,4.309c-2.379,2.379-6.238,2.379-8.616,0c-13.236-13.236-30.834-20.525-49.552-20.525
					s-36.315,7.29-49.551,20.525c-2.379,2.379-6.238,2.379-8.617,0c-2.38-2.38-2.38-6.238,0-8.618
					c15.538-15.537,36.195-24.094,58.168-24.094s42.631,8.557,58.168,24.094C198.124,84.935,198.719,86.494,198.719,88.053z"/>
			</g>
			<g>
				<path fill="#9AC556" stroke="#FFFFFF" stroke-width="2" stroke-miterlimit="10" d="M185.254,106.581
					c0,1.56-0.595,3.119-1.785,4.309c-2.379,2.379-6.238,2.379-8.616,0c-9.641-9.639-22.455-14.947-36.087-14.947
					c-13.631,0-26.446,5.309-36.086,14.948c-2.379,2.379-6.238,2.379-8.616,0c-2.381-2.38-2.381-6.238,0-8.618
					c11.939-11.941,27.815-18.517,44.702-18.517s32.763,6.576,44.703,18.516C184.659,103.462,185.254,105.021,185.254,106.581z"/>
			</g>
			<g>
				<path fill="#9AC556" stroke="#FFFFFF" stroke-width="2" stroke-miterlimit="10" d="M171.789,125.108
					c0,1.559-0.595,3.118-1.785,4.308c-2.379,2.38-6.238,2.38-8.616,0c-12.475-12.472-32.77-12.472-45.243,0.001
					c-2.379,2.379-6.238,2.379-8.616,0c-2.381-2.38-2.381-6.238,0-8.618c17.224-17.225,45.251-17.226,62.476,0
					C171.194,121.989,171.789,123.549,171.789,125.108z"/>
			</g>
			<g>
				<path fill="#9AC556" stroke="#FFFFFF" stroke-width="2" stroke-miterlimit="10" d="M154.381,140.848
					c0,4.172-1.625,8.092-4.573,11.042c-6.089,6.088-15.994,6.088-22.083,0c-2.949-2.95-4.573-6.87-4.573-11.042
					c0-4.171,1.624-8.091,4.573-11.041c6.089-6.088,15.994-6.088,22.083,0C152.756,132.756,154.381,136.676,154.381,140.848z
					 M135.338,140.848c0,0.915,0.357,1.776,1.005,2.424c1.336,1.337,3.511,1.337,4.847,0c0.646-0.647,1.004-1.507,1.004-2.424
					c0-0.915-0.357-1.776-1.004-2.423c-1.336-1.336-3.511-1.336-4.847,0C135.695,139.072,135.338,139.933,135.338,140.848z"/>
			</g>
		</g>
	</g>
</g>
<g id="Layer_6">
	<g>
		<path fill="#3B313F" d="M7.067,44.617c-1.716-0.599-2.188-1.718-1.032-2.501l45.89-31.425c1.683-1.143,4.529-1.315,6.323-0.384
			l59.837,21.489c1.244,0.646,0.89,1.82-0.771,2.621L76.662,57.339c-1.21,0.585-3.204,0.699-4.469,0.259L7.067,44.617z"/>
		<path fill="#FBCC9A" d="M30.653,208.359c0.001,0.99,0.036,1.796,0.111,2.311c0.292,1.971,1.047,2.652,2.158,3.706
			c1.074,1.018,1.168,2.091,1.141,3.467l-0.005,8.311c-0.02,2.224-3.277,2.639-3.812,0.637c-0.158-0.592-0.223-6.493-0.829-6.459
			c-0.463,0.028-1.275,0.169-1.515,0.89c-1.64,4.865,2.073,11.464,1.526,13.026c-1.591,4.524-5.917,0.577-8.69-5.638
			c-2.15-4.817-2.503-11.457-2.58-14.781c-0.029-0.019,0.09-2.053,0.321-5.427C22.526,208.209,26.569,208.178,30.653,208.359z"/>
		<path fill="#FBCC9A" d="M97.282,208.359c-0.002,0.99-0.036,1.796-0.111,2.311c-0.293,1.971-1.048,2.652-2.16,3.706
			c-1.072,1.018-1.168,2.091-1.141,3.467l0.005,8.311c0.021,2.224,3.278,2.639,3.812,0.637c0.159-0.592,0.225-6.493,0.829-6.459
			c0.465,0.028,1.276,0.169,1.515,0.89c1.642,4.865-2.072,11.464-1.525,13.026c1.591,4.524,5.917,0.577,8.691-5.638
			c2.149-4.817,2.502-11.457,2.578-14.781c0.031-0.019-0.09-2.053-0.319-5.427C105.407,208.209,101.364,208.178,97.282,208.359z"/>
		<path fill="#FBCC9A" d="M83.831,88.123c-1.101,6.266,2.612,11.484,8.3,12.608c5.689,1.125,11.189-2.271,12.289-8.537
			c1.102-6.266-2.61-12.257-8.3-13.38C90.433,77.687,84.933,81.858,83.831,88.123z"/>
		<path fill="#FBCC9A" d="M44.147,88.123c1.104,6.266-2.61,11.484-8.298,12.608c-5.688,1.125-11.191-2.271-12.291-8.537
			c-1.102-6.266,2.614-12.257,8.3-13.38C37.546,77.687,43.048,81.858,44.147,88.123z"/>
		<path fill="#FBCC9A" d="M92.369,45.912c-5.553-7.541-14.209-12.496-23.406-12.861c0,0-0.181-0.006-0.474-0.019l0.008-0.36
			c0,0-2.229,0.087-4.53,0.18c-2.301-0.092-4.53-0.18-4.53-0.18l0.011,0.36c-0.294,0.012-0.476,0.019-0.478,0.019
			c-9.192,0.365-17.852,5.32-23.406,12.861c-5.554,7.552-6.292,17.063-5.856,26.17c0.332,6.882,1.549,17.99,1.894,24.873
			c5.575,20.862,19.449,24.425,32.366,24.425c12.918,0,27.254-3.563,32.367-24.425c0.343-6.882,1.561-17.991,1.894-24.873
			C98.666,62.975,97.927,53.464,92.369,45.912z"/>
		<ellipse fill="#381F11" cx="46.485" cy="84.7" rx="3.881" ry="4.604"/>
		<ellipse fill="#381F11" cx="81.792" cy="84.7" rx="3.881" ry="4.604"/>
		<path fill="#6B472D" d="M41.06,75.385c-0.319,0-0.639-0.118-0.89-0.354c-0.519-0.492-0.539-1.311-0.048-1.83
			c2.218-2.337,8.714-3.783,12.525-1.148c0.59,0.407,0.737,1.212,0.33,1.799c-0.406,0.588-1.212,0.737-1.799,0.33
			c-2.783-1.924-7.797-0.657-9.181,0.802C41.746,75.25,41.403,75.385,41.06,75.385z"/>
		<path fill="#6B472D" d="M87.482,75.493c-0.341,0-0.682-0.133-0.938-0.4c-1.981-2.08-6.707-2.024-9.539,0.115
			c-0.568,0.431-1.381,0.318-1.81-0.253c-0.433-0.567-0.319-1.38,0.251-1.811c3.901-2.945,10.085-2.867,12.971,0.165
			c0.493,0.518,0.473,1.335-0.045,1.828C88.122,75.377,87.804,75.493,87.482,75.493z"/>
		<path fill="#CC9A74" d="M61.901,100.423c-0.032,0-0.062,0-0.096-0.004c-0.712-0.05-1.247-0.669-1.196-1.383
			c0.166-2.329,0.428-11.48,0.428-14.279c0-0.714,0.579-1.294,1.292-1.294c0.716,0,1.295,0.58,1.295,1.294
			c0,2.903-0.259,12.039-0.436,14.467C63.141,99.904,62.574,100.423,61.901,100.423z"/>
		<path fill="#89644A" d="M32.526,79.939c0.255-5.044-1.56-17.751,5.1-20.603c2.557-1.094,5.351-1.155,7.932-0.9
			c9.319,0.913,18.005,5.472,34.282,2.838c9.058-1.466,11.414-3.032,13.851-4.957c1.008-0.796,1.248,13.946,1.293,18.638
			c0.021,2.172-0.004,4.24-0.031,6.411c-0.018,1.274-0.014,2.549-0.037,3.82c-0.011,0.519-0.121,1.83,1.58,1.827
			c1.25-0.001,1.41-3.312,1.456-3.914c0.729-9.532,1.088-14.683,0.663-23.579c-0.204-4.299-0.124-4.22-0.477-8.042
			c1.863-2.249,4.917-6.109,4.922-9.025c-1.136,0.658-4.153-0.039-4.153-0.039c1.981-1.894,3.609-4.92,3.106-8.474
			c-2.154,1.535-4.459,2.264-7.363,2.069c0.763-0.951,1.412-2.247,0.007-4.007c-1.294,1.314-3.661,2.118-7.003,2.542
			c-7.284,0.927-27.887-13.925-48.586,1.405c-7.25,5.369-9.945,15.173-9.956,24.587c-0.013,12.227-0.011,8.681-0.022,20.769
			c-0.001,1.084,0.076,4.885,1.328,5.734c1.212,0.821,2.135-0.401,2.112-1.575C32.495,83.674,32.414,82.122,32.526,79.939z"/>
		<g>
			<path fill="#FFFFFF" d="M53.337,105.157c4.576,12.82,21.284,8.225,22.206-0.695L53.337,105.157z"/>
			<path fill="#BA8663" d="M64.081,114.156L64.081,114.156c-5.514,0-9.803-3.147-11.761-8.637c-0.114-0.323-0.069-0.686,0.125-0.968
				c0.194-0.285,0.514-0.46,0.857-0.471l22.207-0.696c0.302-0.021,0.608,0.115,0.822,0.343c0.212,0.228,0.316,0.536,0.283,0.845
				C76.07,109.857,70.446,114.156,64.081,114.156z M54.934,106.187c1.814,3.715,5.082,5.814,9.147,5.814l0,0
				c4.681,0,8.999-2.833,10.132-6.42L54.934,106.187z"/>
		</g>
		<rect x="55.202" y="117.107" fill="#FBCC9A" width="17.527" height="21.46"/>
		<path fill="#605F6D" d="M82.46,302.85l4.38-101.092l-45.751-4.622l4.384,105.714c0,0,6.879,1.963,13.565,7.907
			c0.428-0.553,0.457-1.517,0.457-2.74l-1.146-90.333h11.236l-1.146,90.337c0,1.359,0.193,2.335,0.658,2.862
			C77.41,304.047,82.46,302.85,82.46,302.85z"/>
		<path fill="#ABD1ED" d="M90.956,164.055c0.438-5.965,0.94-11.933,1.139-17.913c0.103-3.068-0.049-6.118,0.224-9.139
			c-3.259-1.692-7.533-3.203-13.194-5.107c-0.812-0.271-2.459-1.002-2.459-1.002l-3.794-3.577l-8.764,5.434
			c0,0-0.154-0.095-0.417-0.252c-0.048,0.255-0.096,0.547-0.144,0.839c-0.002-0.285-0.008-0.569-0.011-0.854l-8.334-5.166
			l-3.794,3.577c0,0-1.646,0.732-2.458,1.002c-4.786,1.61-8.575,2.938-11.605,4.332c0.32,10.01-0.501,20.116-0.813,30.095
			c-0.065,2.076-0.136,4.152-0.2,6.228c0.995-5.423,1.977-10.066,2.334-12.021l1.956,43.107l46.828,4.623l1.954-47.73
			c0.24,1.304,0.756,3.806,1.37,6.936C90.824,166.329,90.871,165.193,90.956,164.055z"/>
		<path fill="#83ABC9" d="M54.875,142.096l-3.737-10.323c-0.127-0.35,0.057-0.743,0.408-0.869c0.35-0.125,0.743,0.054,0.87,0.407
			l3.074,8.499l8.021-6.72c0.287-0.238,0.716-0.202,0.955,0.087c0.243,0.287,0.204,0.714-0.082,0.955L54.875,142.096z"/>
		<path fill="#83ABC9" d="M73.014,142.089l-9.503-7.958c-0.288-0.24-0.326-0.668-0.085-0.955c0.242-0.289,0.67-0.325,0.958-0.087
			l8.023,6.723l3.114-8.396c0.129-0.353,0.521-0.532,0.871-0.403c0.352,0.131,0.531,0.521,0.401,0.875L73.014,142.089z"/>
		<path fill="#83ABC9" d="M63.908,207.981c-0.374,0-0.678-0.302-0.678-0.676v-13.063c0-3.439,0.149-9.813,0.293-15.979
			c0.145-6.171,0.296-12.552,0.296-15.997c0-6.62-0.151-10.478-0.296-14.212c-0.144-3.741-0.293-7.612-0.293-14.251
			c0-0.375,0.304-0.68,0.678-0.68c0.376,0,0.68,0.305,0.68,0.68c0,6.614,0.148,10.471,0.295,14.201
			c0.144,3.744,0.294,7.617,0.294,14.263c0,3.46-0.15,9.853-0.294,16.031c-0.146,6.152-0.295,12.521-0.295,15.944v13.063
			C64.588,207.68,64.284,207.981,63.908,207.981z"/>
		<path fill="#3B313F" d="M32.142,309.697c-1.202,0.784-1.631,1.126-1.01,2.33c0.359,0.691,1.557,0.603,2.771,0.603h24.436
			c1.899,0,1.063-2.376,1.063-6.567c-11.818,0-11.335-4.231-14.329-4.231C43.149,304.049,35.009,307.838,32.142,309.697z"/>
		<path fill="#EFEAE4" d="M38.072,310.295c0,0-0.888-2.579-2.096-2.861c-1.21-0.282-6.287,2.783-6.125,3.711
			c0.161,0.922-0.525,1.667,2.719,1.676c3.243,0.01,5.501,0,5.501,0S38.556,312.17,38.072,310.295z"/>
		<path fill="#EFEAE4" d="M59.994,312.17c0,0.475,0.068,0.866-0.41,0.866H30.713c-0.479,0-0.864-0.392-0.864-0.866l0,0
			c0-0.48,0.386-0.869,0.864-0.869h28.871C60.063,311.301,59.994,311.689,59.994,312.17L59.994,312.17z"/>
		<path fill="#EFEAE4" d="M41.818,308.591c-0.284,0-0.561-0.161-0.689-0.438c-0.333-0.709-1.205-1.514-1.625-1.9l-0.232-0.216
			c-0.301-0.294-0.305-0.776-0.012-1.08c0.297-0.301,0.779-0.302,1.078-0.009l0.198,0.185c0.528,0.486,1.512,1.394,1.972,2.375
			c0.179,0.379,0.015,0.833-0.365,1.012C42.037,308.569,41.928,308.591,41.818,308.591z"/>
		<path fill="#EFEAE4" d="M44.842,306.582c-0.295,0-0.578-0.174-0.7-0.462c-0.284-0.666-1.272-1.722-1.706-1.983
			c-0.361-0.216-0.479-0.682-0.264-1.044c0.217-0.359,0.685-0.48,1.046-0.262c0.716,0.426,1.91,1.723,2.324,2.69
			c0.166,0.388-0.014,0.835-0.401,1C45.041,306.563,44.942,306.582,44.842,306.582z"/>
		<path fill="#3B313F" d="M95.66,309.697c1.204,0.784,1.633,1.126,1.01,2.33c-0.357,0.691-1.556,0.603-2.77,0.603H69.464
			c-1.898,0-1.063-2.376-1.063-6.567c11.819,0,11.335-4.231,14.329-4.231C84.653,304.049,92.792,307.838,95.66,309.697z"/>
		<path fill="#EFEAE4" d="M89.73,310.295c0,0,0.887-2.579,2.095-2.861c1.209-0.282,6.287,2.783,6.126,3.711
			c-0.161,0.922,0.525,1.667-2.719,1.676c-3.244,0.01-5.502,0-5.502,0S89.247,312.17,89.73,310.295z"/>
		<path fill="#EFEAE4" d="M67.808,312.17c0,0.475-0.066,0.866,0.41,0.866h28.871c0.479,0,0.867-0.392,0.867-0.866l0,0
			c0-0.48-0.389-0.869-0.867-0.869H68.218C67.741,311.301,67.808,311.689,67.808,312.17L67.808,312.17z"/>
		<path fill="#EFEAE4" d="M85.979,308.591c-0.105,0-0.217-0.021-0.322-0.072c-0.379-0.179-0.545-0.634-0.364-1.012
			c0.464-0.984,1.449-1.889,1.978-2.379l0.195-0.181c0.302-0.293,0.784-0.292,1.076,0.009c0.295,0.304,0.288,0.786-0.012,1.08
			l-0.229,0.212c-0.419,0.388-1.295,1.195-1.63,1.904C86.542,308.43,86.268,308.591,85.979,308.591z"/>
		<path fill="#EFEAE4" d="M82.959,306.582c-0.1,0-0.202-0.02-0.298-0.061c-0.389-0.165-0.568-0.612-0.401-1
			c0.414-0.968,1.609-2.264,2.322-2.69c0.362-0.216,0.831-0.098,1.046,0.262c0.217,0.362,0.098,0.828-0.262,1.044
			c-0.434,0.262-1.422,1.317-1.706,1.984C83.535,306.411,83.255,306.582,82.959,306.582z"/>
		<path fill="#3B313F" d="M100.421,146.602c-2.563-7.75-9.429-10.764-22.662-15.326c0.404,0.14-5.833,18.593-13.73,29.881
			c-0.101,0.05-0.202,0.15-0.307,0.275c-0.103-0.125-0.204-0.225-0.304-0.275c-7.898-11.288-14.136-29.741-13.731-29.881
			c-13.233,4.562-20.1,7.576-22.663,15.326c-2.098,6.344-10.492,63.423-10.696,68.302c-0.013,0.241,1.695,2.114,8.196,2.114
			c3.412,0,6.774-0.158,10.941-1.376c0.127-0.034-1.131,62.99-1.131,62.99s3.749,2.795,28.666,2.897c0.014,0,0.027,0.005,0.04,0.005
			c0.234,0,0.452-0.003,0.682-0.003c0.231,0,0.449,0.003,0.684,0.003c0.014,0,0.026-0.005,0.04-0.005
			c24.917-0.103,28.668-2.897,28.668-2.897s-1.26-63.024-1.133-62.99c4.166,1.218,7.529,1.376,10.943,1.376
			c6.499,0,8.206-1.873,8.194-2.114C110.913,210.025,102.519,152.946,100.421,146.602z"/>
		<path fill="#4C424F" d="M92.967,33.161c-7.294-4.188-18.521-5.902-31.337-5.285c-21.835,1.054-29.081,8.071-29.023,9.292
			l-3.02,14.731c0.059,1.221-0.279,1.624,1.673,1.529c0,0,5.747-3.364,19.106-4.974C60.271,46.97,83.637,45.749,92.967,33.161z"/>
		<path fill="#3B313F" d="M110.935,60.023c0,0.638-0.517,1.156-1.155,1.156l0,0c-0.637,0-1.156-0.518-1.156-1.156V36.293
			c0-0.64,0.52-1.157,1.156-1.157l0,0c0.639,0,1.155,0.517,1.155,1.157V60.023z"/>
		<path fill="#3B313F" d="M113.536,66.536c0.234,2.013-1.07,4.048-3.002,4.273l-1.353,0.155c-2.052,0.24-3.467-1.618-3.14-3.826
			l1.116-7.522c0.156-1.058,1.267-1.84,2.469-1.84h0.803c1.164,0,2.176,0.748,2.29,1.752L113.536,66.536z"/>
	</g>
	<g>
		<path fill="#3B313F" d="M232.263,41.585c1.686-0.68,2.101-1.821,0.909-2.549L180.406,6.843c-1.737-1.06-4.59-1.095-6.336-0.078
			L120.755,37.83c-1.213,0.706-0.8,1.86,0.894,2.58l53.124,22.552c1.236,0.525,3.232,0.545,4.473,0.043L232.263,41.585z"/>
		<path fill="#301B0F" d="M215.759,147.745c0,2.938-12.186,2.584-32.314,2.584h-16.637c-20.131,0-32.313,0.354-32.313-2.584
			l1.054-75.867c0-25.197,15.534-40.699,39.576-40.699l0,0c26.031,0,39.581,16.263,39.581,40.699L215.759,147.745z"/>
		<path fill="#E0AA79" d="M201.849,202.939c0.197-0.061-2.251-54.007-3.585-60.657c-0.658-3.285-2.039-3.741-3.022-5.555
			c-4.462,1.161-4.633,5.487-5.259,11.508c0.068,0.604,0.065,1.305-0.122,2.098c1.3,11.818,1.926,25.53,2.41,37.034
			c0.123,2.905,0.741,17.046-0.569,17.698c-1.264,0.631-1.685,2.502-1.79,3.619l-0.808,6.715c-0.196,1.802,2.216,2.495,2.992,0.974
			c0.23-0.454,0.879-5.213,1.529-5.073c0.499,0.105,0.282,0.131,0.476,0.755c1.306,4.229-3.371,8.892-2.924,10.255
			c1.285,3.943,4.487,1.344,8.101-3.178C202.083,215.627,202.541,208.993,201.849,202.939z"/>
		<path fill="#E0AA79" d="M189.851,146.739c0,0,0.564,0.72,0.854,1.938c-0.104-6.052,0.161-12.205,4.45-13.897
			c-2.119-2.994-7.338-3.087-15.4-6.716c-1.883-0.682-2.829-1.455-4.1-1.056c-1.272-0.399-4.103-1.129-5.985-0.447
			c-2.44,1.098-3.85,4.135-5.521,4.955c2.838,9.314,2.085,17.197-0.781,25.891c1.484,3.918,2.493,9.951,1.796,16.685
			c-0.911,8.81-10.954,14.287-11.171,31.909c-0.204,16.29-3.735,78.631-5.954,90.915c-0.478,2.649-2.953,8.67-4.139,9.724
			c-0.74,0.658,3.557,1.843,3.557,1.843s10.826-1.743,11.27-5.179l12.363-98.367l4.566-0.303l3.551,0.303l-0.074,27.795
			l-0.18,70.236c0,3.466,0.93,1.867,0.93,1.867s12.235,5.468,16.669,7.454c2.559,1.142,1.78-1.098,1.78-1.098
			s-4.478,0.218-4.628-4.457c-0.004-0.135-0.135-2.132-0.783-2.877c-1.04-1.198-2.416-3.165-2.552-5.858
			c-0.427-8.453,2.548-40.257,4.443-64.938c0.017,0,0.034,0,0.051,0c0.869-11.633,1.506-21.745,1.439-27.061
			c-0.22-17.622-9.243-23.1-10.157-31.909c-0.911-8.811,1.097-16.43,3.265-19.67c0.794-1.181,1.184-2.26,1.352-3.222
			c-0.006-0.27-0.012-0.542-0.02-0.812C190.449,149.146,190.151,147.927,189.851,146.739z"/>
		<path fill="#E0AA79" d="M190.76,151.199c0.025-0.141,0.06-0.288,0.075-0.424c-0.031-0.129-0.063-0.258-0.095-0.388
			C190.748,150.657,190.754,150.929,190.76,151.199z"/>
		<path fill="#E0AA79" d="M202.847,48.05c-5.936-8.415-12.027-8.675-21.854-9.083h-10.68c-9.826,0.408-15.919,0.668-21.852,9.083
			c-5.938,8.424-3.69,10.605-3.223,20.766c0.354,7.676-4.233,2.291-1.059,23.641c3.175,21.35,21.716,28.197,31.471,28.197
			c9.758,0,26.909-5.724,31.477-28.197c4.567-22.472-1.417-15.965-1.059-23.641C206.534,58.656,208.784,56.474,202.847,48.05z"/>
		<path fill="#FBCC9A" d="M160.471,150.775c0.324-1.374,0.65-2.724,0.987-4.036C161.458,146.739,160.195,148.294,160.471,150.775z"
			/>
		<path fill="#FBCC9A" d="M189.851,146.739c0.333,1.313,0.662,2.662,0.984,4.036C191.112,148.294,189.851,146.739,189.851,146.739z"
			/>
		<rect x="169.672" y="118.252" fill="#E0AA79" width="11.961" height="18.475"/>
		<path fill="#B27D56" d="M173.535,100.313c-0.036,0-0.073-0.001-0.109-0.004c-0.67-0.061-1.163-0.651-1.103-1.319
			c0.164-1.847,0.423-9.088,0.423-11.301c0-0.672,0.544-1.218,1.216-1.218c0.67,0,1.215,0.545,1.215,1.218
			c0,2.103-0.244,9.45-0.432,11.519C174.688,99.838,174.157,100.313,173.535,100.313z"/>
		<ellipse fill="#381F11" cx="158.166" cy="86.859" rx="4.318" ry="5.124"/>
		<path fill="#381F11" d="M163.611,78.769c-0.362,0-0.727-0.149-0.985-0.443c-1.22-1.378-2.871-1.691-4.039-1.712
			c-1.844-0.034-3.761,0.67-4.781,1.745c-0.502,0.527-1.336,0.55-1.861,0.049c-0.528-0.5-0.55-1.334-0.05-1.861
			c1.545-1.628,4.141-2.603,6.738-2.565c2.398,0.04,4.517,0.964,5.964,2.598c0.483,0.544,0.434,1.376-0.11,1.858
			C164.235,78.661,163.923,78.769,163.611,78.769z"/>
		<path fill="#381F11" d="M188.767,78.624c-0.285,0-0.572-0.092-0.813-0.282c-0.572-0.45-0.673-1.276-0.224-1.848
			c1.112-1.412,3.203-2.357,5.467-2.465c2.399-0.118,4.578,0.728,6.145,2.37c0.5,0.526,0.481,1.359-0.044,1.862
			c-0.528,0.5-1.36,0.481-1.862-0.047c-1.391-1.458-3.189-1.606-4.114-1.554c-1.692,0.081-3.011,0.813-3.52,1.458
			C189.544,78.451,189.156,78.624,188.767,78.624z"/>
		<path fill="#381F11" d="M197.404,86.859c0,2.831-1.938,5.124-4.318,5.124c-2.385,0-4.319-2.293-4.319-5.124
			s1.935-5.127,4.319-5.127C195.467,81.732,197.404,84.028,197.404,86.859z"/>
		<path fill="#FBCC9A" d="M160.471,150.775c0.324-1.374,0.65-2.724,0.987-4.036C161.458,146.739,160.195,148.294,160.471,150.775z"
			/>
		<path fill="#FBCC9A" d="M189.851,146.739c0.333,1.313,0.662,2.662,0.984,4.036C191.112,148.294,189.851,146.739,189.851,146.739z"
			/>
		<path fill="#3B313F" d="M184.62,127.644"/>
		<path fill="#3B313F" d="M194.652,189.892c-2.621,2.556-6.723-1.178-7.534-1.994c-12.697-8.989-7.964-13.253-22.45-2.308
			c-2.018,0.676-5.279,7.507-8.164,4.52c-1.433,3.803-2.003,7.06-2.499,12.377c-0.576,6.16-1.436,14.965-1.43,15.053
			c0.016,0.231,0.212,0.351,0.436,0.414c9.14,2.57,36.476,2.457,43.419,0.291c0,0,0.917-0.46,0.941-0.688
			c0.007-0.078-0.175-7.905-0.175-14.036C197.196,198.264,196.111,193.791,194.652,189.892z"/>
		<path fill="#694C75" d="M187.262,173.993c-1.862-8.433,1.037-11.913,3.153-15.072c0.436-0.65,4.354-5.011,1.512-12.685
			c2.309-1.116,3.593-2.383,6.233-3.006c-0.176-0.669-0.329-1.215-0.453-1.599c-2.235-6.78-6.914-9.28-9.104-11.845
			c0.005-0.03-4.504-2.318-4.538-2.248c-1.065-0.74-2.433-1.937-2.433-1.937c-1.338,7.271-6.253,13.767-6.253,13.767
			s-5.062-7.52-5.708-13.767c0,0-1.702,1.634-2.586,2.114c-2.821,1.572-5.493,2.231-5.481,2.355
			c-0.008-0.061-5.97,1.147-10.084,6.777c-0.202,0.275-0.456,0.658-0.758,1.123c2.314,1.737,6.655,7.251,7.827,10.129
			c0.003-0.003,0.006-0.005,0.011-0.008c-1.632,6.523,1.695,10.234,2.093,10.829c2.12,3.159,5.018,6.639,3.151,15.072
			c-0.354,1.619-1.544,3.923-2.923,6.591c-1.413,2.733-3.074,5.961-4.418,9.525c2.885,2.987,35.217,2.987,38.102,0
			c-1.343-3.564-3.006-6.792-4.418-9.525C188.81,177.916,187.621,175.612,187.262,173.993z"/>
		<path fill="#52396D" d="M145.821,303.056c-1.805,3.622-5.086,6.121-5.086,6.121c-1.981,2.264-2.107,3.477-0.217,3.7
			c0,0,3.919,0.477,6.515-0.224c5.703-1.526,8.726-5.677,9.327-5.991l0.412,4.053c1.504,0.882,2.354-0.157,2.354-0.157
			s1.776-11.928,0.2-13.136c-0.268-0.209,0,0,0,0c0.134,0.105-4.314,7.756-10.937,9.163c-1.125,0.24-2.53,0.35-3.172-0.938
			C144.862,304.933,145.502,303.701,145.821,303.056z"/>
		<path fill="#52396D" d="M192.503,303.056c1.804,3.622,5.084,6.121,5.084,6.121c1.983,2.264,2.11,3.477,0.22,3.7
			c0,0-3.92,0.477-6.517-0.224c-5.703-1.526-8.728-5.677-9.328-5.991l-0.411,4.053c-1.503,0.882-2.354-0.157-2.354-0.157
			s-1.777-11.928-0.202-13.136c0.269-0.209,0,0,0,0c-0.135,0.105,4.318,7.756,10.938,9.163c1.128,0.24,2.53,0.35,3.173-0.938
			C193.459,304.933,192.822,303.701,192.503,303.056z"/>
		<ellipse fill="#DD947A" cx="155.331" cy="98.044" rx="6.099" ry="4.214"/>
		<ellipse fill="#DD947A" cx="195.918" cy="98.044" rx="6.098" ry="4.214"/>
		<path fill="#301B0F" d="M139.376,78.851c0,0,30.775-6.839,58.14-26.259c0,0,9.369,16.103,10.551,38.839
			c0,0,10.807-43.175-15.707-52.463C165.847,29.679,133.297,44.005,139.376,78.851z"/>
		<g>
			<path fill="#FFFFFF" d="M166.172,106.611c3.473,8.474,17.342,5.746,18.306-0.081L166.172,106.611z"/>
			<path fill="#A36E46" d="M175.107,112.999h-0.002c-4.64-0.001-8.33-2.246-9.872-6.004c-0.126-0.312-0.09-0.667,0.098-0.947
				c0.186-0.279,0.5-0.449,0.838-0.45l18.304-0.081c0.002,0,0.002,0,0.005,0c0.296,0,0.579,0.131,0.771,0.357
				c0.192,0.226,0.277,0.528,0.227,0.823C184.823,110.641,179.693,112.999,175.107,112.999z M167.854,107.617
				c2.041,2.996,5.65,3.354,7.251,3.354h0.002c3.45,0,6.697-1.477,7.906-3.421L167.854,107.617z"/>
		</g>
		<path fill="#E0AA79" d="M160.304,183.454c-1.15-0.351-3.759-0.966-3.814-0.964c-0.679,0.032-1.656-0.688-2.715-1.749
			c-2.303,0.22-4.155,1.095-4.797,2.376c-0.911,1.519-1.542,3.22-1.854,4.966c1.531,1.548,3.458,3.362,5.79,4.202
			c2.068,0.743,0.728-0.317,5.764,2.534c1.237,0.699,2.795-0.232,1.979-1.863c-0.331-0.67-2.425-2.076-2.792-2.411
			c2.031,0.479,4.484,3.133,5.812,2.502c3.457-1.636-3.062-5.801-5.622-6.248c0.674,0.117,2.773,0.003,5.382,2.01
			c0.826,0.635,1.784,0.532,2.263,0.079c0.756-0.718,0.434-1.695-0.201-2.466C164.193,184.836,162.214,184.038,160.304,183.454z"/>
		<path fill="#4C424F" d="M138.634,52.334c0,0-1.255,2.213,0.7,2.213c0,0,17.896-5.523,37.367-5.523
			c18.382,0,35.246,5.523,35.246,5.523c0.816,0.352,0.459-1.787,0.459-1.787l-6.149-18.305c0-1.222-7.441-5.111-29.301-5.111
			c-19.417,0-29.303,3.889-29.303,5.111L138.634,52.334z"/>
		<path fill="#3B313F" d="M223.154,67.807c0,0.639,0.519,1.157,1.157,1.157l0,0c0.638,0,1.154-0.518,1.154-1.157V44.077
			c0-0.639-0.517-1.156-1.154-1.156l0,0c-0.639,0-1.157,0.517-1.157,1.156V67.807z"/>
		<path fill="#3B313F" d="M220.554,74.319c-0.233,2.013,1.071,4.048,3.003,4.273l1.353,0.156c2.05,0.24,3.466-1.618,3.138-3.826
			l-1.114-7.521c-0.156-1.058-1.268-1.841-2.47-1.841h-0.803c-1.163,0-2.173,0.747-2.289,1.751L220.554,74.319z"/>
		<path fill="#3B313F" d="M198.039,139.542c-0.301-0.745-0.646-1.461-1.044-2.137c-2.694-4.584-7.142-8.626-12.19-9.687
			c-0.126-0.027-0.346-0.114-0.367,0.013c-1.534,9.139-8.928,19.25-8.928,19.25s-5.883-6.962-8.482-19.269
			c-0.09-0.021-0.183-0.012-0.277,0.006c-12.053,2.305-19.35,10.804-26.345,23.481c-3.274,5.931-4.89,14.475-6.01,22.449
			c-1.695,12.082,2.773,33.724,17.654,34.334c0,0-0.209,0.101-0.373,2.084c-0.192,2.33-0.389,4.657-0.583,6.984
			c-0.471,5.627-2.119,35.825-2.812,45.308c-0.063,0.856-0.202,1.747-0.169,2.608c0.006,0.194,0.923,3.886,27.411,3.886
			c26.122,0,27.042-3.825,27.032-3.931c-0.059-0.719-0.114-1.438-0.173-2.161c-0.752-9.307-1.506-18.612-2.258-27.919
			c-0.426-5.252-0.98-10.154-1.305-15.447c-0.165-2.713-0.396-5.427-0.286-8.15c3.406,0.029,6.82-0.882,8.544-2.342
			c0.192-4.526-3.052-41.362-4.111-50.177C202.134,151.807,200.195,144.901,198.039,139.542z M151.27,167.788
			c0.735-6.447,5.033-14.835,5.361-15.14c-0.173,2.321,0.844,13.88-0.527,27.837C150.343,176.885,151.27,167.788,151.27,167.788z"/>
		<path fill="#EFEAE4" d="M171.002,169.392c1.547,0.394,2.486,1.963,2.093,3.511l-6.739,17.788l-2.638,19.248
			c-0.392,1.546-1.963,2.483-3.512,2.092l-3.552-0.9c-1.548-0.393-2.484-1.963-2.092-3.508l6.841-18.185l2.536-18.853
			c0.391-1.547,1.965-2.484,3.511-2.092L171.002,169.392z"/>
		<path fill="#E0AA79" d="M167.008,188.046c1.132,0.383,2.729,1.212,2.241,3.354c-0.341,1.485-1.844,1.686-2.764,1.478
			c0.556,0.386,1.075,0.985,1.024,1.603c-0.135,1.582-1.241,1.929-3.013,1.992c-3.112,0.115-3.284,0.344-5.501-0.342
			c-3.471-1.077-3.616-5.468-3.04-8.294c1.091-5.33,5.717-4.657,7.441-4.609c2.153,0.058,5.989,0.995,5.974,3.283
			C169.36,188.139,168.382,188.511,167.008,188.046z"/>
	</g>
</g>
</svg>
